<?xml version="1.0" standalone="no"?>
<!DOCTYPE svg PUBLIC "-//W3C//DTD SVG 20010904//EN"
 "http://www.w3.org/TR/2001/REC-SVG-20010904/DTD/svg10.dtd">
<svg version="1.0" xmlns="http://www.w3.org/2000/svg"
 width="1000.000000pt" height="1000.000000pt" viewBox="0 0 1000.000000 1000.000000"
 preserveAspectRatio="xMidYMid meet">
<metadata>
Created by potrace 1.14, written by Peter Selinger 2001-2017
</metadata>
<g transform="translate(0.000000,1000.000000) scale(0.100000,-0.100000)"
fill="#000000" stroke="none">
<path d="M5535 8870 c-3 -5 -1 -10 4 -10 6 0 11 5 11 10 0 6 -2 10 -4 10 -3 0
-8 -4 -11 -10z"/>
<path d="M6486 8867 c3 -10 9 -15 12 -12 3 3 0 11 -7 18 -10 9 -11 8 -5 -6z"/>
<path d="M7825 8869 c-10 -15 3 -25 16 -12 7 7 7 13 1 17 -6 3 -14 1 -17 -5z"/>
<path d="M7871 8852 c0 -12 -9 -26 -18 -29 -10 -4 -23 -14 -30 -22 -15 -20
-28 -7 -28 27 0 22 -5 27 -24 27 -13 0 -26 -6 -29 -13 -3 -11 -1 -11 16 -1 26
16 40 5 22 -16 -15 -18 -56 -16 -52 3 3 18 -11 15 -36 -8 -25 -24 -36 -26 -28
-5 3 8 2 15 -3 15 -13 0 -22 -44 -11 -48 6 -2 10 -7 10 -12 0 -12 -73 -10 -88
2 -7 6 -16 8 -19 4 -4 -4 -2 -11 5 -15 16 -9 5 -41 -14 -41 -23 0 -16 -15 14
-27 l27 -11 -32 -1 c-18 -1 -33 -5 -33 -11 0 -5 -14 -10 -32 -10 -39 0 -26
-15 20 -23 24 -5 32 -3 32 8 0 25 17 17 23 -11 4 -25 4 -25 -51 -18 -58 7
-113 29 -91 36 16 5 2 28 -17 28 -8 0 -12 -4 -9 -10 3 -5 1 -10 -6 -10 -7 0
-5 -8 7 -22 17 -19 17 -21 2 -15 -14 5 -18 1 -18 -18 0 -32 -16 -40 -30 -15
-7 13 -21 20 -40 20 -17 0 -30 -3 -30 -6 0 -13 22 -44 31 -44 6 0 7 4 4 10 -3
6 1 7 9 4 28 -11 17 -24 -18 -24 -29 0 -36 -5 -50 -34 -23 -49 -21 -59 11 -51
34 8 55 35 41 52 -7 9 -7 13 1 13 6 0 11 -4 11 -10 0 -16 30 -12 36 5 4 10 13
13 26 9 13 -4 18 -2 14 4 -3 6 7 16 24 24 16 7 30 16 30 20 0 15 31 8 47 -12
16 -18 18 -18 34 -4 18 16 39 12 39 -8 0 -6 -3 -8 -7 -5 -3 4 -17 -3 -30 -15
-20 -19 -27 -20 -43 -10 -11 7 -34 12 -51 12 -26 0 -30 -2 -19 -15 6 -8 9 -19
6 -24 -9 -13 26 -31 59 -31 20 0 26 -4 22 -14 -3 -8 -1 -17 6 -20 7 -3 2 -3
-10 0 -38 9 -104 13 -99 6 2 -4 -34 -5 -80 -3 l-84 3 0 -42 0 -42 36 4 c29 2
40 -2 48 -17 6 -11 12 -22 13 -24 2 -2 13 7 24 20 15 16 20 18 16 7 -5 -15 1
-17 54 -13 32 2 59 0 59 -5 0 -13 31 -17 78 -8 64 11 110 36 114 61 2 14 9 21
19 19 19 -3 53 43 44 58 -3 6 0 10 8 10 25 0 55 37 50 62 -3 18 2 27 19 37 13
7 29 11 34 9 12 -4 64 54 64 72 0 6 4 9 9 5 6 -3 15 3 20 14 15 26 14 28 -10
34 -17 5 -18 8 -8 25 12 20 42 23 66 9 7 -4 16 0 21 9 14 26 2 61 -26 75 -15
8 -36 22 -46 32 -24 21 -40 22 -32 2 3 -10 -1 -15 -14 -15 -10 0 -21 8 -23 18
-4 12 -5 11 -6 -6z m139 -62 c0 -5 -11 -10 -25 -10 -14 0 -25 5 -25 10 0 6 11
10 25 10 14 0 25 -4 25 -10z m-150 -10 c0 -5 7 -10 15 -10 16 0 20 -12 8 -23
-3 -4 -8 -22 -10 -39 -4 -43 -10 -58 -23 -58 -5 0 -9 10 -7 22 1 17 -4 24 -20
26 -28 4 -30 22 -3 22 18 0 27 26 21 63 0 4 4 7 9 7 6 0 10 -4 10 -10z m-70
-30 c0 -5 -7 -10 -16 -10 -8 0 -12 5 -9 10 3 6 10 10 16 10 5 0 9 -4 9 -10z
m1 -63 c-1 -4 -1 -16 -1 -27 0 -11 -4 -20 -9 -20 -13 0 -24 37 -16 50 7 12 27
9 26 -3z m-121 -27 c0 -5 -6 -10 -12 -10 -7 0 -24 -3 -38 -6 -24 -6 -25 -6 -5
9 22 18 55 22 55 7z m40 -14 c0 -2 -7 -6 -15 -10 -8 -3 -15 -1 -15 4 0 6 7 10
15 10 8 0 15 -2 15 -4z m-23 -57 c11 -4 24 -13 28 -19 10 -17 -24 -46 -62 -54
-29 -5 -33 -3 -34 17 0 12 -3 16 -6 10 -9 -23 -28 -14 -30 14 -2 48 32 58 104
32z m98 11 c3 -5 1 -10 -4 -10 -6 0 -11 5 -11 10 0 6 2 10 4 10 3 0 8 -4 11
-10z m-245 -90 c0 -5 -4 -10 -10 -10 -5 0 -10 5 -10 10 0 6 5 10 10 10 6 0 10
-4 10 -10z m23 -102 c7 -21 -33 -38 -60 -25 l-23 10 23 13 c29 16 54 17 60 2z"/>
<path d="M5503 8845 c4 -8 2 -17 -3 -20 -6 -4 -10 -1 -10 4 0 6 -4 11 -10 11
-5 0 -7 -7 -3 -16 6 -17 7 -17 -59 -1 -7 2 -10 2 -5 0 14 -9 7 -23 -13 -23
-15 0 -20 -7 -20 -29 0 -17 4 -33 10 -36 5 -3 15 -15 21 -26 9 -18 8 -20 -12
-17 -12 2 -24 -3 -27 -11 -3 -8 0 -11 7 -7 6 4 11 2 11 -3 0 -14 27 -14 32 0
2 6 12 7 27 1 23 -8 21 -10 -22 -20 -42 -11 -46 -15 -43 -39 2 -23 6 -28 28
-26 28 2 68 30 68 49 0 10 50 27 58 20 5 -5 -44 -52 -61 -59 -33 -12 -7 -27
48 -27 57 0 79 13 42 25 -19 6 -19 8 -4 12 11 3 17 14 17 33 0 24 -3 28 -17
23 -16 -6 -16 -5 -4 10 12 15 10 17 -20 18 -19 1 -46 0 -61 -1 -22 -1 -26 2
-21 19 3 12 0 27 -6 34 -13 17 -5 27 17 20 10 -3 24 -7 32 -10 13 -4 12 -6 -3
-18 -16 -11 -15 -13 13 -17 17 -3 33 -1 37 5 3 5 14 7 24 4 11 -3 19 -1 19 4
0 5 -7 9 -15 9 -22 0 -30 27 -14 47 12 15 11 16 -8 11 -27 -7 -42 10 -22 23
10 6 11 9 2 9 -7 0 -13 7 -13 15 0 8 -5 15 -11 15 -6 0 -9 -7 -6 -15z m-73
-215 c0 -5 -4 -10 -10 -10 -5 0 -10 5 -10 10 0 6 5 10 10 10 6 0 10 -4 10 -10z"/>
<path d="M6445 8850 c3 -5 11 -10 16 -10 6 0 7 5 4 10 -3 6 -11 10 -16 10 -6
0 -7 -4 -4 -10z"/>
<path d="M6640 8819 c0 -17 4 -28 10 -24 6 3 10 17 10 31 0 13 -4 24 -10 24
-5 0 -10 -14 -10 -31z"/>
<path d="M5575 8820 c-3 -5 1 -10 9 -10 9 0 16 -4 16 -10 0 -5 10 -10 23 -9
14 0 17 2 7 6 -8 3 -19 12 -23 19 -9 16 -23 18 -32 4z"/>
<path d="M6460 8814 c0 -9 -5 -12 -12 -8 -9 5 -9 2 1 -9 12 -15 11 -17 -3 -17
-9 0 -16 5 -16 12 0 6 -6 3 -14 -7 -16 -23 -10 -41 8 -26 10 8 18 5 32 -10
l18 -20 12 33 c6 18 9 41 6 51 -5 21 -32 23 -32 1z"/>
<path d="M5220 8811 c0 -5 7 -11 15 -15 9 -3 15 0 15 9 0 8 -7 15 -15 15 -8 0
-15 -4 -15 -9z"/>
<path d="M6185 8810 c-3 -5 1 -10 9 -10 9 0 16 5 16 10 0 6 -4 10 -9 10 -6 0
-13 -4 -16 -10z"/>
<path d="M5320 8790 c-9 -13 -21 -18 -35 -14 -13 3 -27 -1 -34 -10 -8 -9 -21
-16 -30 -17 -10 0 -11 -2 -3 -6 6 -2 12 -11 12 -19 0 -19 46 -18 54 1 5 14 8
14 31 -1 19 -12 23 -22 19 -40 -4 -17 -2 -24 8 -24 19 0 11 71 -11 87 -14 11
-14 12 5 13 28 0 35 9 23 31 -12 24 -21 24 -39 -1z"/>
<path d="M6303 8795 c0 -8 8 -15 18 -15 12 0 16 5 13 15 -4 8 -12 15 -18 15
-7 0 -13 -7 -13 -15z"/>
<path d="M6236 8787 c3 -10 9 -15 12 -12 3 3 0 11 -7 18 -10 9 -11 8 -5 -6z"/>
<path d="M6526 8785 c-9 -9 -16 -25 -16 -35 0 -10 -3 -25 -6 -34 -3 -9 -1 -16
5 -16 6 0 11 10 11 21 0 18 2 20 15 9 9 -7 14 -19 11 -27 -3 -7 1 -13 9 -13
10 0 15 10 15 29 0 16 3 37 7 47 5 14 2 16 -23 10 -20 -5 -25 -4 -14 3 8 6 12
13 8 16 -3 3 -13 -1 -22 -10z"/>
<path d="M7610 8790 c-9 -6 -10 -10 -3 -10 6 0 15 5 18 10 8 12 4 12 -15 0z"/>
<path d="M1874 8759 c-3 -6 -12 -8 -20 -5 -8 3 -14 1 -14 -4 0 -6 -8 -10 -19
-10 -17 0 -19 -8 -16 -102 3 -127 2 -121 20 -114 9 3 15 1 14 -7 -1 -6 0 -23
1 -37 2 -21 4 -19 12 13 6 20 14 37 19 37 5 0 9 7 9 15 0 20 20 19 36 -2 13
-17 13 -17 14 0 0 9 6 17 14 17 8 0 17 6 19 13 3 6 6 0 6 -15 1 -31 21 -49 21
-19 0 30 -18 72 -39 90 -14 12 -16 22 -10 39 14 36 -48 121 -67 91z m-7 -71
c-3 -8 -6 -5 -6 6 -1 11 2 17 5 13 3 -3 4 -12 1 -19z m3 -64 c0 -16 -23 -44
-35 -44 -16 0 -18 9 -9 34 6 15 44 24 44 10z"/>
<path d="M6133 8753 c-3 -10 -15 -28 -26 -40 -14 -16 -18 -30 -13 -50 5 -20 4
-24 -3 -13 -8 12 -12 9 -20 -13 -13 -34 -14 -47 -2 -47 5 0 11 9 14 20 8 29
37 26 37 -5 0 -34 12 -32 28 5 15 32 8 54 -14 46 -10 -4 -14 3 -14 27 1 31 1
31 16 12 14 -19 15 -17 12 27 -3 52 -5 57 -15 31z"/>
<path d="M1570 8751 c0 -15 -50 -30 -80 -25 l-30 7 0 -87 c0 -51 -4 -86 -10
-86 -5 0 -10 11 -10 24 0 16 -5 23 -16 22 -9 0 -19 5 -21 12 -3 7 4 12 16 12
18 0 21 6 21 49 0 28 -4 53 -10 56 -5 3 -10 -3 -10 -15 0 -12 -4 -18 -10 -15
-5 3 -10 -1 -10 -9 0 -19 -20 -22 -20 -3 0 6 -12 -1 -25 -16 -26 -30 -32 -47
-15 -47 6 0 10 -10 10 -21 0 -12 8 -28 18 -35 10 -8 12 -13 5 -14 -23 0 -14
-37 12 -48 14 -6 25 -17 25 -24 0 -9 -3 -8 -10 2 -5 8 -10 10 -10 4 0 -14 35
-46 43 -38 3 3 3 13 0 22 -5 11 -3 13 7 7 10 -6 11 -2 6 19 -8 32 2 55 15 35
5 -8 9 -35 9 -61 0 -35 4 -48 15 -48 8 0 22 -8 32 -18 12 -12 32 -18 61 -18
47 1 54 -12 22 -46 -22 -24 -26 -43 -10 -53 5 -3 7 -12 4 -19 -11 -29 22 -23
35 6 12 26 11 31 -5 43 -11 7 -16 17 -12 20 4 4 14 0 23 -9 18 -18 35 -21 35
-6 0 6 7 10 15 10 8 0 20 10 26 22 7 13 18 29 25 36 12 11 13 8 10 -18 -5 -48
18 -30 25 18 4 31 2 42 -8 42 -8 0 -14 14 -14 38 -1 27 -3 30 -6 12 -3 -14
-11 -32 -19 -41 -8 -8 -16 -30 -18 -48 -4 -35 -26 -68 -26 -39 0 9 -9 18 -20
21 -27 7 -25 35 3 39 19 3 22 9 22 43 0 32 4 40 18 39 9 -1 17 4 17 11 0 7 6
18 14 24 12 10 18 7 30 -16 l16 -28 0 40 c1 22 1 74 2 115 1 60 -2 74 -13 71
-8 -2 -32 -5 -53 -5 -22 -1 -41 -7 -44 -14 -2 -7 1 -12 7 -12 6 0 8 -7 5 -15
-9 -23 -20 -18 -34 15 -8 19 -20 30 -32 30 -17 0 -18 3 -8 15 7 8 9 15 4 16
-5 0 -17 2 -26 4 -10 2 -18 0 -18 -4z m-43 -113 c-3 -8 -6 -5 -6 6 -1 11 2 17
5 13 3 -3 4 -12 1 -19z m29 -25 c-11 -11 -17 4 -9 23 7 18 8 18 11 1 2 -10 1
-21 -2 -24z m141 5 c-3 -8 -6 -5 -6 6 -1 11 2 17 5 13 3 -3 4 -12 1 -19z m71
0 c2 -12 -2 -15 -17 -11 -12 3 -21 12 -21 20 0 20 34 12 38 -9z m-120 -96 c2
-7 -3 -12 -12 -12 -9 0 -16 7 -16 16 0 17 22 14 28 -4z m-91 -43 c1 -17 7 -37
13 -44 7 -9 6 -16 -5 -25 -15 -13 -20 -5 -16 26 1 6 -8 15 -19 20 l-21 9 21
23 c11 12 22 22 23 22 1 0 3 -14 4 -31z"/>
<path d="M5610 8740 c0 -11 5 -20 10 -20 6 0 10 9 10 20 0 11 -4 20 -10 20 -5
0 -10 -9 -10 -20z"/>
<path d="M6180 8732 c0 -15 5 -19 20 -15 24 6 21 26 -3 31 -11 2 -17 -3 -17
-16z"/>
<path d="M6280 8741 c0 -5 3 -17 6 -26 5 -12 9 -14 14 -4 5 7 6 18 3 26 -6 15
-23 18 -23 4z"/>
<path d="M7416 8735 c-3 -8 -1 -17 3 -20 5 -3 11 2 15 10 3 8 1 17 -3 20 -5 3
-11 -2 -15 -10z"/>
<path d="M6320 8731 c0 -4 11 -6 25 -3 14 2 25 6 25 8 0 2 -11 4 -25 4 -14 0
-25 -4 -25 -9z"/>
<path d="M7260 8713 c0 -14 3 -23 7 -19 10 10 11 46 1 46 -4 0 -8 -12 -8 -27z"/>
<path d="M7340 8710 c0 -19 3 -21 12 -12 9 9 9 15 0 24 -9 9 -12 7 -12 -12z"/>
<path d="M7485 8720 c-7 -11 2 -30 14 -30 5 0 11 9 14 20 5 21 -16 29 -28 10z"/>
<path d="M5206 8711 c-4 -7 -5 -15 -2 -18 9 -9 19 4 14 18 -4 11 -6 11 -12 0z"/>
<path d="M5290 8680 c0 -11 -4 -20 -10 -20 -5 0 -10 7 -10 15 0 8 -6 15 -13
15 -9 0 -11 -12 -9 -40 3 -25 9 -40 17 -40 8 0 17 -5 21 -12 5 -8 -7 -10 -44
-5 -59 7 -54 14 -72 -103 -15 -101 -16 -100 30 -100 29 0 40 4 40 15 0 9 9 15
23 14 16 -1 18 -2 5 -6 -26 -7 -22 -23 6 -23 13 0 37 -3 54 -6 28 -6 30 -4 25
16 -5 19 -3 21 15 15 17 -5 21 -3 16 9 -9 23 19 20 34 -4 10 -17 10 -20 -3
-20 -8 0 -15 -4 -15 -10 0 -5 18 -10 40 -10 22 0 40 3 40 8 0 4 13 13 28 20
31 13 39 42 12 42 -20 0 -46 27 -36 37 3 4 12 -2 20 -12 8 -11 18 -15 26 -10
9 6 10 9 0 15 -16 10 -4 31 14 24 8 -3 17 0 21 6 4 7 1 10 -6 9 -8 -1 -22 1
-32 6 -10 4 -23 2 -32 -5 -8 -7 -21 -10 -29 -7 -10 4 -13 1 -10 -7 3 -7 -2
-16 -10 -19 -11 -5 -16 0 -16 14 0 11 -4 18 -9 14 -5 -3 -12 4 -16 15 -7 23
-25 27 -25 6 0 -8 10 -22 23 -32 14 -11 16 -14 5 -11 -11 4 -22 -1 -28 -11 -9
-16 -11 -16 -24 1 -7 9 -19 17 -27 18 -8 0 -5 4 6 9 13 6 15 9 5 9 -13 1 -13
2 0 11 12 8 11 13 -8 39 -22 31 -30 71 -13 71 5 0 11 -10 14 -22 3 -21 4 -22
12 -4 6 14 2 23 -14 35 -14 11 -20 23 -15 34 4 12 1 17 -10 17 -9 0 -16 -8
-16 -20z m30 -110 c0 -5 -9 -10 -20 -10 -11 0 -20 5 -20 10 0 6 9 10 20 10 11
0 20 -4 20 -10z m-50 -86 c0 -3 -7 -12 -15 -20 -13 -14 -15 -13 -15 5 0 12 6
21 15 21 8 0 15 -3 15 -6z m140 -16 c0 -7 -11 -18 -25 -24 -19 -9 -27 -9 -36
2 -9 11 -6 14 20 14 17 0 31 5 31 10 0 6 2 10 5 10 3 0 5 -6 5 -12z m25 -28
c3 -5 1 -10 -4 -10 -6 0 -11 5 -11 10 0 6 2 10 4 10 3 0 8 -4 11 -10z m45 -10
c-6 -11 -18 -20 -28 -19 -14 0 -14 2 3 9 11 5 16 9 12 9 -11 1 2 21 14 21 6 0
6 -8 -1 -20z"/>
<path d="M6195 8653 c-4 -15 -10 -35 -16 -43 -19 -31 -21 -42 -10 -53 8 -8 15
-6 25 9 14 18 15 18 21 2 4 -10 13 -18 20 -18 21 0 30 22 13 34 -8 6 -18 28
-22 48 -9 47 -24 57 -31 21z"/>
<path d="M6322 8655 c-7 -15 -10 -31 -7 -36 4 -5 1 -9 -4 -9 -6 0 -11 -7 -11
-15 0 -8 -4 -15 -10 -15 -5 0 -10 -9 -10 -21 0 -18 4 -20 26 -15 15 4 32 2 40
-5 12 -10 18 -9 27 0 9 10 9 15 -4 24 -9 7 -14 18 -12 25 3 6 -1 12 -7 12 -7
0 -9 10 -6 28 9 40 -7 59 -22 27z"/>
<path d="M5590 8660 c0 -5 5 -10 11 -10 5 0 7 5 4 10 -3 6 -8 10 -11 10 -2 0
-4 -4 -4 -10z"/>
<path d="M5194 8646 c-4 -11 -1 -22 7 -27 31 -19 38 -6 14 25 -14 18 -15 18
-21 2z"/>
<path d="M6436 8649 c5 -8 -1 -10 -20 -7 -26 5 -37 -6 -13 -15 9 -4 8 -6 -2
-6 -11 -1 -11 -4 -1 -16 11 -13 10 -14 -4 -9 -20 8 -20 0 0 -31 11 -16 12 -25
5 -25 -7 0 -11 -8 -9 -17 2 -13 -5 -19 -24 -21 -25 -3 -33 -12 -29 -34 0 -5
-3 -8 -9 -8 -5 0 -7 -7 -4 -15 4 -9 0 -15 -10 -15 -9 0 -16 -4 -16 -9 0 -6 15
-7 33 -4 34 5 34 5 28 -28 -3 -20 -6 -27 -9 -16 -5 25 -52 23 -52 -3 0 -21 15
-27 25 -10 4 6 16 3 31 -7 21 -14 27 -14 34 -3 5 8 6 18 4 22 -3 4 -3 8 1 8 3
0 9 -10 14 -21 7 -20 9 -18 29 20 27 50 27 47 2 54 -11 3 -20 12 -20 21 0 12
-7 14 -32 10 -31 -6 -32 -6 -13 9 10 8 25 13 32 10 9 -4 13 5 13 26 0 17 8 45
19 64 22 40 25 87 4 87 -8 0 -11 -5 -7 -11z"/>
<path d="M7293 8653 c-7 -2 -13 -9 -13 -14 0 -14 26 -10 40 6 10 12 10 15 -1
14 -8 0 -20 -3 -26 -6z"/>
<path d="M7226 8642 c-2 -4 4 -8 15 -8 10 0 19 4 19 8 0 4 -6 8 -14 8 -8 0
-17 -4 -20 -8z"/>
<path d="M7224 8606 c-10 -8 -17 -17 -14 -19 3 -3 14 1 24 9 11 7 17 16 15 19
-3 3 -14 -2 -25 -9z"/>
<path d="M6115 8540 c-7 -23 1 -40 19 -40 11 0 14 16 7 53 -2 15 -20 6 -26
-13z"/>
<path d="M6452 8548 c5 -15 28 -23 28 -10 0 5 -7 13 -16 16 -10 4 -14 1 -12
-6z"/>
<path d="M7209 8553 c-1 -5 0 -25 1 -45 1 -21 -3 -38 -8 -38 -18 0 -31 26 -25
50 4 16 3 21 -5 16 -20 -12 -15 -74 5 -78 10 -2 18 -12 18 -22 0 -11 6 -21 13
-24 9 -3 12 2 10 14 -3 11 1 31 9 46 7 15 9 29 4 32 -4 3 -6 17 -3 31 2 15 0
25 -7 25 -6 0 -11 -3 -12 -7z"/>
<path d="M2020 8518 c-10 -13 -26 -32 -34 -43 -8 -11 -18 -17 -22 -12 -4 4 -3
12 3 18 6 6 9 18 6 26 -4 10 -9 6 -19 -13 -16 -31 -18 -60 -4 -69 13 -8 13
-45 1 -45 -15 0 -26 22 -23 45 3 20 2 20 -16 -1 -10 -11 -24 -23 -32 -27 -11
-4 -11 -6 -2 -6 7 -1 10 -5 7 -11 -3 -6 1 -7 9 -4 10 4 19 -1 23 -12 4 -11 13
-25 20 -32 19 -20 16 -32 -8 -32 -15 0 -19 -5 -15 -15 3 -9 0 -15 -9 -15 -18
0 -21 -60 -4 -77 8 -8 2 -14 -20 -24 -17 -8 -31 -18 -32 -24 0 -5 -4 -32 -8
-58 -6 -37 -5 -52 6 -63 20 -20 28 -12 43 41 10 37 10 48 -1 61 -12 15 -11 16
9 10 22 -7 26 0 25 42 -1 6 3 12 8 12 4 0 11 15 15 34 3 19 21 53 40 74 19 22
34 46 34 54 -1 9 -5 8 -14 -4 -7 -10 -18 -18 -25 -18 -15 0 -14 27 2 37 15 10
16 34 0 51 -10 10 -8 17 8 33 11 11 24 17 29 14 6 -4 10 7 10 24 0 18 5 31 13
31 14 -1 47 -63 47 -90 0 -23 15 -27 23 -6 6 14 -52 116 -65 116 -5 0 -17 -10
-28 -22z"/>
<path d="M6185 8496 c4 -17 2 -32 -5 -36 -8 -5 -7 -9 4 -13 8 -3 22 1 31 9 20
20 20 48 0 40 -8 -3 -19 3 -25 12 -9 14 -10 11 -5 -12z"/>
<path d="M6325 8510 c-3 -5 -11 -7 -18 -4 -7 2 -13 -4 -14 -16 -1 -11 1 -20 5
-20 8 1 46 50 38 50 -3 0 -7 -4 -11 -10z"/>
<path d="M6470 8509 c0 -6 -7 -8 -16 -5 -13 5 -15 2 -9 -11 4 -10 7 -26 7 -35
0 -10 3 -18 9 -18 5 0 9 5 9 11 0 6 7 17 15 25 8 8 12 21 9 29 -7 17 -24 20
-24 4z"/>
<path d="M6020 8500 c0 -5 5 -10 10 -10 6 0 10 5 10 10 0 6 -4 10 -10 10 -5 0
-10 -4 -10 -10z"/>
<path d="M6095 8490 c-4 -6 -16 -8 -27 -4 -15 4 -19 2 -16 -7 3 -9 17 -13 41
-11 22 2 37 -1 37 -7 0 -6 5 -11 11 -11 6 0 9 8 7 18 -2 9 -8 17 -13 17 -6 0
-15 4 -22 8 -6 4 -15 3 -18 -3z"/>
<path d="M7107 8474 c-22 -29 -18 -31 12 -5 12 11 18 21 14 24 -4 3 -16 -6
-26 -19z"/>
<path d="M1842 8428 c-7 -7 -12 -17 -12 -24 0 -7 -6 -14 -12 -16 -8 -3 -5 -9
8 -16 19 -10 22 -8 32 23 11 37 3 52 -16 33z"/>
<path d="M7140 8416 c-14 -27 -30 -35 -30 -15 0 8 -5 8 -15 -1 -26 -21 -17
-26 51 -25 l65 0 -24 20 c-13 11 -26 26 -29 33 -2 9 -9 5 -18 -12z"/>
<path d="M5983 8395 c-12 -38 2 -61 19 -31 5 9 14 16 19 16 6 0 7 -5 4 -11
-11 -17 4 -61 20 -56 15 6 25 -13 25 -46 0 -16 -6 -22 -24 -23 -21 -2 -26 4
-31 37 -4 21 -11 39 -16 39 -6 0 -8 -4 -4 -9 3 -5 1 -12 -5 -16 -5 -3 -10 -14
-9 -23 0 -11 2 -12 6 -4 7 17 23 5 23 -18 0 -13 -5 -17 -15 -14 -10 4 -15 0
-15 -15 0 -12 -5 -21 -11 -21 -8 0 -10 19 -6 60 3 37 1 62 -6 67 -6 4 -8 -2
-4 -16 3 -14 0 -24 -8 -27 -17 -7 -39 -69 -30 -84 10 -16 57 -12 77 7 16 15
21 15 28 3 10 -17 4 -30 -15 -30 -15 0 -28 -27 -16 -35 5 -3 12 2 15 11 3 8
11 12 16 9 8 -5 7 -11 -1 -21 -7 -9 -8 -14 -1 -14 6 0 14 5 17 10 3 6 15 10
26 10 10 0 19 -4 19 -10 0 -5 7 -10 15 -10 21 0 14 -54 -10 -80 -17 -18 -17
-20 -2 -14 10 3 24 1 33 -6 20 -18 1 -30 -46 -30 -19 0 -42 -5 -50 -11 -12 -9
-11 -10 8 -6 12 3 22 1 22 -3 0 -5 10 -10 23 -12 14 -2 23 -11 25 -27 2 -13 0
-21 -6 -17 -5 3 -12 0 -15 -8 -3 -8 2 -17 11 -21 13 -5 14 -8 3 -15 -24 -14
-43 0 -37 26 4 14 2 24 -4 24 -5 0 -10 -7 -10 -16 0 -13 -7 -15 -32 -10 -36 7
-58 23 -58 42 0 8 -4 14 -10 14 -5 0 -7 -7 -4 -15 8 -19 8 -19 -98 5 -109 24
-292 22 -380 -4 -66 -20 -103 -18 -103 4 0 16 -45 22 -97 13 -29 -5 -40 -37
-15 -46 6 -3 -9 -6 -35 -6 -27 -1 -48 -5 -48 -11 0 -5 8 -10 18 -11 13 0 12
-3 -6 -11 -28 -14 -42 -2 -45 38 -1 21 3 29 18 32 36 6 64 24 58 38 -3 9 2 14
17 14 11 0 19 4 15 10 -3 5 -36 8 -73 7 l-67 -2 -12 -78 c-6 -43 -17 -84 -23
-92 -6 -7 -32 -18 -58 -25 -26 -6 -101 -34 -168 -61 -66 -27 -129 -49 -139
-49 -10 0 -45 13 -79 29 -225 109 -482 175 -764 197 -30 2 -58 6 -63 10 -5 3
-59 8 -121 11 -129 6 -277 -11 -352 -40 -28 -10 -69 -26 -91 -34 -22 -8 -47
-20 -55 -27 -8 -7 -45 -27 -82 -45 -38 -19 -68 -37 -68 -42 0 -5 -6 -9 -13 -9
-7 0 -75 -45 -152 -100 -76 -55 -142 -100 -147 -100 -4 0 -8 6 -8 13 0 19
-149 237 -161 237 -8 0 -10 -14 -6 -38 5 -40 -8 -77 -23 -67 -6 3 -5 16 0 31
12 32 9 72 -7 86 -18 14 -16 31 2 24 8 -3 15 -1 15 5 0 5 -11 14 -24 19 -17 6
-23 14 -20 28 6 21 -10 37 -48 46 -24 5 -28 3 -28 -14 0 -11 -5 -20 -11 -20
-12 0 -4 34 17 67 18 29 18 30 -6 36 -11 3 -20 12 -20 20 0 9 -9 32 -21 51
-19 33 -21 34 -40 18 -10 -9 -19 -22 -19 -29 0 -7 -7 -13 -15 -13 -12 0 -14
-7 -9 -27 6 -22 4 -25 -10 -20 -10 4 -16 1 -16 -9 0 -8 7 -17 15 -20 8 -4 15
-10 15 -16 0 -5 -4 -6 -10 -3 -13 8 -11 -22 3 -60 7 -17 21 -32 32 -33 27 -5
27 -5 16 -33 -5 -13 -10 -18 -10 -11 -2 27 -21 9 -26 -25 -12 -71 -15 -75 -41
-69 -14 4 -24 2 -24 -4 0 -5 -3 -9 -8 -9 -4 1 -9 0 -12 -1 -3 -1 -17 -4 -32
-6 -26 -4 -28 -2 -28 27 0 24 4 30 15 25 8 -3 15 -1 15 4 0 6 7 10 17 10 15 0
14 2 -2 20 -12 13 -17 34 -17 63 1 37 -3 47 -28 65 -36 27 -38 27 -43 0 -2
-13 -5 35 -6 105 -1 82 -5 126 -11 122 -6 -3 -7 1 -4 9 3 9 1 16 -5 16 -8 0
-10 -17 -6 -52 3 -29 6 -60 7 -68 1 -8 0 -27 0 -43 -2 -27 -2 -27 -28 -11 -18
13 -22 19 -12 25 13 8 22 84 13 108 -4 11 -9 10 -20 -5 -16 -22 -20 -48 -5
-39 6 3 10 -3 10 -15 0 -12 -5 -18 -10 -15 -6 3 -10 1 -10 -4 0 -6 -10 -11
-22 -10 -13 0 -17 3 -10 6 9 3 10 9 2 18 -11 14 1 58 19 70 16 9 13 28 -3 22
-7 -3 -18 -1 -24 5 -16 16 -33 -1 -26 -28 5 -19 3 -23 -10 -18 -13 5 -16 -1
-18 -32 0 -22 -2 -51 -2 -66 -1 -16 2 -28 7 -28 4 0 5 -15 2 -32 -4 -22 -1
-40 9 -53 15 -20 15 -20 16 3 0 12 5 22 10 22 6 0 10 -7 10 -15 0 -17 16 -20
24 -6 4 5 1 11 -6 13 -6 2 -8 10 -4 16 11 18 23 14 30 -10 6 -22 7 -22 20 -5
20 26 36 21 36 -12 0 -28 2 -29 40 -25 l40 4 0 -61 c0 -38 -4 -58 -10 -54 -5
3 -10 15 -10 25 0 10 -4 21 -10 25 -5 3 -7 12 -4 19 3 8 1 17 -5 21 -7 4 -11
-15 -12 -57 -1 -35 -3 -80 -4 -101 -2 -33 0 -38 17 -34 14 4 18 1 14 -11 -3
-9 -1 -24 4 -32 8 -13 10 -12 11 5 1 11 2 27 1 36 -1 12 4 15 18 12 17 -4 20
-14 20 -54 0 -27 5 -49 10 -49 6 0 10 -5 10 -12 0 -19 31 -47 46 -41 20 7 90
-7 76 -16 -6 -4 -14 -23 -18 -41 -4 -26 -3 -31 5 -20 15 22 54 -16 47 -46 -5
-17 6 -36 39 -75 24 -28 41 -57 38 -63 -4 -6 -33 -49 -64 -96 -31 -47 -76
-123 -99 -170 -24 -47 -44 -86 -45 -88 -5 -8 -65 12 -65 22 0 11 -82 96 -93
96 -2 0 -30 26 -61 57 -43 43 -59 54 -65 44 -5 -8 -14 -10 -20 -7 -7 5 -10 2
-9 -6 2 -7 -7 -14 -19 -16 -15 -2 -27 -16 -39 -48 -9 -24 -18 -43 -20 -41 -2
2 -6 23 -9 48 -3 24 -8 57 -11 73 -4 16 -2 31 4 35 15 9 3 81 -13 81 -8 0 -12
-14 -11 -37 1 -32 -2 -38 -21 -41 -13 -2 -23 -10 -23 -19 0 -9 6 -13 15 -9 28
11 60 -43 34 -59 -6 -4 -14 -17 -19 -29 -8 -18 -9 -19 -9 -2 -1 13 -6 17 -20
13 -13 -3 -22 3 -30 20 -13 28 -14 53 -3 53 4 0 8 19 8 43 1 23 4 59 7 80 5
35 4 37 -19 31 -17 -4 -26 -1 -30 11 -4 9 -2 20 5 24 17 11 -11 33 -44 35 -17
1 -25 7 -25 19 0 11 -5 15 -11 11 -7 -4 -9 0 -5 14 5 13 1 22 -10 26 -22 9
-30 1 -38 -36 -7 -31 -8 -32 -21 -14 -8 11 -15 14 -15 7 0 -7 -4 -10 -9 -6 -5
3 -7 21 -4 40 5 28 2 35 -11 35 -14 0 -16 -6 -10 -35 4 -23 2 -35 -5 -35 -6 0
-11 4 -11 10 0 5 -7 7 -15 4 -11 -5 -12 -10 -2 -25 6 -10 18 -19 25 -19 7 0
10 -5 6 -11 -4 -7 0 -9 14 -5 23 8 35 -9 45 -60 5 -29 4 -31 -24 -31 -19 0
-29 5 -30 16 0 14 -1 14 -6 1 -10 -24 -29 -38 -49 -37 -26 3 -34 16 -33 57 l0
35 15 -28 c8 -15 12 -33 8 -40 -5 -8 -4 -9 3 -2 6 6 13 29 17 53 6 38 4 42
-14 42 -11 0 -20 -4 -20 -10 0 -5 -7 -7 -15 -4 -10 4 -12 15 -8 35 3 18 1 29
-6 29 -6 0 -11 -12 -12 -27 0 -16 -3 -22 -6 -15 -2 6 -14 12 -25 12 -14 0 -18
-5 -14 -16 4 -9 1 -23 -5 -31 -9 -10 -9 -17 -1 -25 7 -7 12 -24 12 -39 0 -38
11 -89 20 -89 4 0 5 12 2 28 l-5 27 22 -27 22 -27 35 19 c48 28 65 25 29 -4
-16 -13 -27 -28 -22 -32 4 -4 13 -2 19 4 7 7 20 12 31 12 15 0 17 -5 12 -29
-4 -21 -2 -30 9 -34 17 -7 22 -47 6 -47 -5 0 -10 5 -10 10 0 6 -9 10 -20 10
-14 0 -20 7 -20 24 0 22 -16 36 -43 36 -8 0 -7 -4 1 -12 7 -7 12 -29 12 -51 0
-35 -1 -37 -16 -23 -8 9 -13 20 -9 25 9 16 -6 61 -21 61 -16 0 -19 -16 -5 -22
5 -1 7 -15 4 -30 -3 -16 -10 -25 -16 -21 -6 4 -7 1 -1 -8 4 -7 7 -28 5 -46 -3
-34 12 -45 23 -17 6 16 8 16 24 0 10 -9 24 -16 31 -16 6 0 14 -7 17 -15 4 -8
12 -15 20 -15 8 0 14 -9 14 -19 0 -26 18 -31 99 -26 73 5 97 -6 65 -29 -9 -7
-25 -11 -34 -9 -8 2 -29 -1 -45 -7 l-30 -11 25 -19 c31 -24 47 -25 53 -2 3 10
5 6 6 -10 1 -29 25 -39 34 -15 3 6 6 3 6 -8 2 -38 63 -74 90 -53 14 12 14 11
2 -4 -11 -15 -11 -21 -1 -33 10 -12 16 -13 28 -3 13 11 15 10 9 -4 -4 -11 3
-22 21 -34 18 -12 27 -13 30 -6 6 19 22 14 22 -8 0 -28 80 -81 111 -73 20 6
22 4 12 -9 -11 -12 -6 -18 27 -37 22 -12 42 -26 45 -30 2 -5 -4 -51 -15 -102
-20 -95 -46 -346 -55 -526 -2 -54 -9 -223 -15 -376 -10 -277 -17 -325 -45
-292 -8 9 -256 55 -297 55 -16 0 -7 -29 9 -33 17 -4 17 -5 1 -6 -24 -1 -24
-58 -1 -84 17 -18 17 -19 0 -32 -12 -9 -17 -26 -17 -64 0 -64 -19 -68 -22 -3
-7 220 -8 224 -38 229 -22 3 -23 2 -7 -15 22 -24 23 -66 2 -58 -10 4 -17 -3
-21 -22 -4 -15 -12 -32 -19 -37 -7 -6 -15 -22 -17 -35 -2 -14 -9 -24 -16 -22
-8 1 -11 -2 -7 -7 3 -6 12 -8 20 -4 8 3 15 0 15 -6 0 -7 -7 -14 -15 -17 -8 -4
-15 -18 -16 -33 0 -15 -3 -20 -6 -11 -3 8 -12 23 -21 33 -8 9 -10 17 -5 17 13
0 34 78 22 82 -4 2 -9 19 -11 39 -1 26 -6 35 -15 32 -8 -3 -11 -14 -7 -28 5
-20 3 -23 -15 -18 -14 3 -21 13 -21 29 0 12 -4 26 -10 29 -5 3 -10 11 -10 16
0 6 5 7 10 4 6 -3 10 0 10 9 0 8 3 21 6 30 4 12 0 16 -15 16 -17 0 -21 -6 -21
-34 0 -42 -18 -58 -59 -50 -35 7 -37 10 -16 30 13 14 17 14 31 0 22 -23 36 -9
29 27 -8 35 -25 60 -25 36 0 -10 -2 -11 -8 -2 -4 7 -26 15 -48 19 -32 5 -44 2
-59 -12 -20 -21 -85 -27 -97 -10 -5 8 -8 8 -8 0 0 -15 41 -67 47 -60 3 3 14 1
24 -5 15 -7 21 -6 25 6 10 25 22 17 16 -12 -5 -26 -4 -27 12 -14 16 13 17 12
11 -12 -4 -15 -4 -35 1 -44 4 -10 8 -22 9 -28 0 -5 6 -9 13 -8 19 4 14 -14 -8
-30 -11 -8 -17 -17 -12 -22 4 -4 -3 -3 -15 4 -12 6 -25 16 -28 21 -4 6 -11 7
-17 4 -8 -5 -9 -1 -5 10 5 11 3 16 -4 14 -7 -2 -13 -24 -15 -48 -1 -25 -7 -63
-13 -84 -12 -47 -8 -56 25 -56 27 0 27 0 15 -33 -13 -34 7 -41 76 -26 45 10
52 15 47 31 -3 10 -1 18 5 18 6 0 11 -4 11 -10 0 -5 14 -10 30 -10 26 0 30 4
30 28 0 19 3 23 9 13 7 -11 9 -11 13 0 3 8 -2 20 -11 27 -14 12 -13 13 6 9 15
-3 23 1 28 17 4 14 8 17 12 8 3 -8 -3 -29 -13 -47 -10 -19 -16 -36 -14 -38 3
-3 20 -2 38 0 29 5 33 9 28 28 -5 19 -3 22 14 18 11 -3 20 -12 20 -20 0 -11 7
-13 26 -9 15 4 39 9 54 13 l28 5 -5 -48 c-7 -59 -13 -70 -13 -23 0 29 -4 35
-22 37 -39 4 -66 -7 -73 -29 -6 -19 -8 -19 -19 -4 -16 23 -86 10 -93 -16 -6
-20 -23 -26 -23 -9 0 6 -11 10 -25 10 -42 0 -155 -32 -149 -42 3 -5 35 -7 72
-5 53 3 67 7 72 22 6 18 7 18 12 -3 6 -21 10 -21 199 -21 256 0 320 6 326 30
3 11 10 19 15 19 5 0 7 -8 3 -19 -8 -25 17 -33 44 -15 20 14 21 14 23 -8 0
-13 2 -34 3 -48 1 -14 5 -68 9 -120 4 -52 11 -120 16 -150 18 -114 21 -160 10
-160 -5 0 -10 5 -10 10 0 6 -12 10 -27 9 -27 0 -27 -1 -6 -9 13 -5 23 -14 23
-20 0 -5 6 -10 14 -10 15 0 29 -40 22 -62 -15 -47 -16 -67 -3 -62 10 3 14 -4
15 -26 1 -26 -2 -30 -19 -25 -20 7 -79 -14 -79 -27 0 -4 -12 -1 -27 7 -29 15
-45 12 -37 -9 3 -8 1 -17 -5 -21 -6 -3 -11 -2 -11 3 0 5 -11 21 -25 36 -14 15
-25 39 -25 54 0 20 -3 23 -12 14 -19 -19 -48 -15 -48 7 0 24 36 37 56 20 13
-10 17 -10 25 2 12 19 11 36 -2 45 -8 4 -9 0 -4 -15 5 -15 2 -21 -9 -21 -9 0
-16 5 -16 11 0 7 -10 20 -22 31 -16 14 -21 28 -20 56 1 20 -1 33 -5 27 -5 -5
-35 -11 -67 -13 -33 -1 -65 -7 -72 -13 -7 -6 -18 -8 -24 -4 -6 4 -23 4 -39 0
-24 -5 -28 -11 -29 -45 -1 -27 3 -42 14 -48 15 -8 15 -13 0 -60 -10 -29 -15
-56 -12 -61 4 -5 0 -12 -6 -14 -8 -3 -6 -6 5 -6 16 -1 18 -8 14 -61 -3 -34 -7
-64 -11 -67 -12 -12 -6 -43 8 -43 20 0 24 8 30 70 3 30 9 69 15 85 8 27 9 24
10 -26 1 -41 5 -59 16 -63 8 -3 15 -10 15 -16 0 -14 26 -41 32 -34 3 2 42 6
86 7 70 3 86 7 107 27 14 13 25 18 25 12 0 -17 39 -15 46 2 3 8 13 12 23 9 9
-2 37 3 61 11 25 9 52 16 60 16 11 0 26 -45 58 -168 24 -92 47 -185 51 -207 5
-22 18 -58 30 -80 14 -27 19 -50 16 -75 -3 -19 -8 -65 -11 -102 -4 -38 -11
-68 -17 -68 -5 0 -7 12 -4 28 3 15 -1 38 -8 52 -18 31 -18 40 -2 36 6 -1 9 -1
5 1 -4 2 -4 20 -1 40 5 28 3 35 -8 31 -8 -3 -22 -1 -33 4 -31 16 -81 1 -96
-30 -13 -26 -14 -26 -18 -5 -2 13 -7 23 -12 23 -5 0 -10 11 -12 24 l-3 25 -47
-21 c-27 -11 -45 -25 -41 -31 3 -5 1 -7 -5 -4 -16 11 -176 -64 -160 -75 9 -7
7 -8 -7 -4 -31 8 -121 -45 -117 -69 2 -18 1 -18 -8 -3 -12 19 -40 14 -40 -8 0
-8 6 -11 15 -8 12 5 14 -6 14 -64 -1 -90 6 -115 32 -107 24 8 25 -3 2 -21 -37
-28 -52 -18 -55 39 -3 48 -4 50 -15 27 -11 -24 -12 -23 -12 15 1 22 3 34 6 28
10 -27 23 -11 23 28 0 22 -4 38 -9 34 -6 -3 -14 2 -19 12 -8 14 -14 15 -35 6
-23 -11 -26 -19 -32 -100 -9 -120 -13 -125 -14 -15 l-1 92 -62 -31 c-35 -18
-69 -40 -76 -51 -9 -13 -18 -16 -25 -10 -19 16 -131 -48 -135 -76 -2 -15 -14
-27 -31 -33 -25 -9 -29 -17 -35 -62 -11 -96 -8 -167 9 -167 9 0 12 -6 9 -15
-4 -8 -10 -12 -15 -9 -5 3 -9 -11 -9 -30 0 -35 13 -48 23 -23 4 9 8 8 16 -3
16 -23 13 -30 -12 -27 -18 2 -23 -3 -25 -32 -3 -32 -2 -34 14 -20 13 11 18 11
21 2 11 -33 20 -7 19 52 -1 43 3 65 10 65 14 0 24 -23 24 -56 0 -27 8 -29 62
-13 23 6 38 16 38 25 0 8 5 12 10 9 17 -10 11 11 -10 36 l-19 24 -1 -29 c0
-22 -3 -27 -11 -19 -6 6 -9 21 -7 34 3 22 8 24 51 22 44 -1 63 10 35 20 -10 3
-10 7 0 20 8 9 11 21 8 26 -4 6 -2 18 3 28 5 10 16 33 24 51 13 30 15 31 20
13 3 -12 12 -21 21 -21 9 0 16 -4 16 -10 0 -5 7 -10 15 -10 8 0 15 7 15 16 0
13 5 11 25 -7 17 -17 20 -25 11 -27 -8 -2 -16 -20 -20 -40 -10 -64 -10 -65 34
-59 23 3 40 1 43 -6 2 -6 9 -7 15 -3 15 9 16 48 1 63 -16 16 -7 57 14 61 15 3
17 -5 17 -55 0 -79 9 -91 48 -67 17 10 29 21 26 26 -3 5 -10 5 -16 2 -7 -4 -8
-2 -4 5 4 6 16 9 27 6 14 -5 17 -3 13 9 -3 9 -2 16 4 16 6 0 12 -4 14 -10 2
-5 62 30 133 77 155 102 143 92 125 103 -12 8 -11 10 5 11 11 1 26 2 32 2 7
-1 49 25 94 56 73 49 82 60 84 89 3 44 15 54 15 14 0 -18 2 -32 5 -32 3 0 24
12 46 27 32 21 39 31 34 47 -25 87 -11 116 21 44 10 -24 37 -69 59 -101 22
-33 45 -66 50 -75 32 -53 180 -246 222 -289 75 -78 113 -122 113 -130 0 -13
128 -135 190 -182 30 -23 60 -46 67 -51 9 -7 -2 -30 -42 -89 -31 -45 -55 -90
-55 -104 0 -14 -5 -29 -11 -32 -11 -7 -22 -33 -33 -80 -7 -29 -7 -29 12 -12
17 16 23 16 41 5 l21 -13 -22 -11 -21 -12 22 -7 c12 -4 28 -2 36 5 15 12 16
51 2 61 -5 4 -3 17 5 30 16 28 38 53 38 43 0 -3 7 -1 15 6 13 11 15 8 15 -19
0 -17 -4 -31 -10 -31 -5 0 -10 7 -10 16 0 14 -3 14 -15 4 -18 -15 -19 -29 -2
-52 11 -14 17 -15 37 -5 13 7 24 21 25 32 2 25 46 127 52 121 3 -2 0 -14 -7
-25 -8 -16 -8 -21 1 -21 8 0 10 -13 6 -40 -3 -22 -2 -42 1 -44 4 -2 7 -49 7
-104 0 -79 2 -98 12 -90 8 6 10 24 6 53 -4 34 -2 48 11 61 16 15 17 15 11 -12
-4 -16 -9 -37 -12 -46 -2 -10 -2 -18 1 -18 11 0 95 183 89 193 -3 6 -1 7 5 3
7 -4 20 10 34 39 16 33 26 44 38 39 66 -29 418 -151 455 -158 42 -8 353 -76
395 -86 60 -14 208 -38 380 -61 91 -13 169 -26 173 -29 4 -4 10 -20 12 -36 2
-16 4 -30 4 -31 1 -1 13 2 27 7 17 7 32 7 45 -1 26 -14 15 -29 -23 -29 -27 0
-30 -2 -24 -25 4 -16 1 -34 -9 -48 -24 -34 -17 -215 8 -200 6 4 8 0 4 -10 -15
-39 -19 -87 -7 -87 8 0 10 -9 6 -24 -8 -31 13 -83 26 -64 4 7 8 28 8 46 0 17
5 32 11 32 6 0 8 7 5 15 -3 9 1 18 9 21 8 4 13 10 10 14 -3 5 -7 35 -10 66 -7
92 -14 117 -31 103 -11 -9 -14 -9 -14 1 0 7 8 18 17 25 13 10 15 16 6 26 -9
11 -8 18 1 32 18 24 26 21 27 -10 2 -26 2 -27 6 -4 3 16 7 20 12 12 11 -18 39
-3 56 32 21 42 20 60 -5 52 -11 -3 -20 -2 -20 3 0 6 6 12 12 14 9 3 8 9 -5 22
-16 17 -17 16 -17 -8 0 -30 -19 -45 -32 -23 -4 9 -16 23 -24 32 -13 12 -14 19
-4 30 15 18 60 20 60 4 0 -8 4 -8 15 1 9 7 26 9 47 4 52 -11 194 -14 683 -13
11 0 106 5 210 10 215 12 221 12 290 6 28 -2 55 0 62 5 7 5 13 5 17 0 6 -9 86
-6 116 5 8 3 26 7 40 9 14 2 41 6 60 8 78 12 240 48 315 71 252 76 310 110
455 266 52 56 107 115 123 130 15 16 27 33 27 38 0 5 15 19 33 30 34 21 84 84
106 135 7 17 16 65 21 108 11 92 16 104 36 83 10 -10 13 -25 9 -48 -6 -33 -6
-33 109 -110 64 -42 116 -73 116 -67 0 5 11 9 25 8 20 -2 25 -8 25 -31 0 -24
3 -28 20 -24 13 3 20 0 20 -9 0 -13 66 -64 82 -64 5 0 8 6 8 13 0 7 9 13 19
14 14 1 18 -3 14 -13 -3 -8 -9 -14 -14 -14 -5 0 -9 -4 -9 -10 0 -5 9 -10 20
-10 11 0 20 -7 20 -15 0 -8 7 -15 15 -15 8 0 15 -4 15 -10 0 -5 11 -12 25 -16
14 -3 25 -10 25 -14 0 -4 12 -16 27 -25 23 -16 25 -16 20 -1 -4 10 -1 16 7 16
8 0 16 -9 19 -20 5 -20 27 -28 27 -10 0 6 -4 10 -10 10 -5 0 -10 5 -10 11 0 7
10 9 25 7 34 -7 31 8 -6 27 -23 12 -34 13 -44 5 -17 -14 -21 -5 -20 58 0 28
-2 52 -5 53 -3 0 -18 2 -34 4 -42 6 -45 15 -4 15 36 0 51 18 41 48 -6 17 -23
15 -23 -3 0 -11 -12 -14 -50 -14 -33 1 -49 6 -47 13 2 6 12 11 23 11 14 0 21
9 25 35 4 19 7 31 8 26 0 -6 8 -1 16 10 13 18 14 18 9 -6 l-6 -25 22 24 c15
17 21 36 19 60 -3 54 0 71 12 71 5 0 8 -4 4 -9 -3 -5 -1 -12 4 -15 5 -4 12 2
14 11 4 14 5 13 6 -4 0 -13 -3 -23 -8 -23 -5 0 -8 -8 -6 -17 13 -62 17 -73 29
-73 8 0 16 9 18 20 2 12 7 19 13 18 14 -4 6 -39 -13 -61 -9 -10 -15 -33 -14
-55 1 -20 2 -48 2 -61 0 -14 4 -27 8 -30 4 -3 18 -25 29 -48 20 -38 21 -80 2
-93 -13 -9 26 -72 56 -88 16 -10 36 -23 44 -31 25 -23 25 5 0 30 l-22 22 21 8
c13 5 22 18 23 31 1 13 2 30 3 38 2 8 3 23 4 33 1 10 6 16 11 13 5 -3 7 -50 6
-105 l-2 -99 49 -32 c27 -18 50 -31 51 -29 1 2 -1 33 -4 69 -3 36 -6 59 -7 52
-3 -20 -22 -3 -22 19 0 11 7 22 15 25 12 5 15 27 15 114 0 60 -4 112 -10 115
-6 4 -5 13 3 26 10 17 9 22 -5 30 -23 13 -23 24 1 48 18 18 19 17 25 -68 3
-47 6 -134 6 -192 0 -92 3 -110 20 -132 l20 -26 -22 -20 c-20 -20 -15 -27 15
-22 5 1 6 -3 2 -9 -3 -5 -12 -10 -20 -10 -8 0 -11 -7 -8 -19 6 -24 43 -60 43
-42 0 6 8 11 18 9 12 -2 16 3 14 17 -3 20 -3 20 11 1 14 -19 15 -19 26 2 8 15
8 22 1 22 -6 0 -8 10 -5 22 6 25 8 72 6 130 -1 29 -4 36 -16 32 -10 -4 -15 0
-15 11 0 11 5 15 14 12 15 -6 26 20 26 61 0 12 5 22 11 22 7 0 9 -12 5 -35 -4
-22 -3 -35 4 -35 5 0 10 6 10 14 0 19 30 29 46 15 16 -13 19 -79 4 -79 -5 0
-11 9 -11 20 -3 39 -4 43 -16 48 -7 2 -14 -1 -14 -7 -1 -6 -2 -17 -3 -23 -1
-7 -7 -12 -14 -11 -8 2 -12 -10 -12 -33 0 -21 4 -33 10 -29 6 3 10 15 10 26 0
25 12 24 29 -2 8 -14 16 -18 20 -11 4 6 11 1 18 -14 6 -13 7 -24 2 -24 -5 0
-9 -11 -9 -25 0 -18 -11 -33 -38 -52 -32 -23 -38 -33 -37 -64 0 -34 2 -37 28
-37 15 1 27 5 27 10 0 20 23 1 35 -29 11 -26 11 -35 0 -57 -13 -24 -12 -28 7
-46 28 -26 32 -25 48 5 7 14 19 25 27 25 7 0 13 7 13 15 0 8 6 15 13 15 18 0
61 46 53 58 -3 5 -18 7 -32 4 -23 -4 -26 -2 -21 12 4 10 7 20 7 22 0 2 7 4 15
4 18 0 20 21 4 37 -6 6 -9 35 -7 67 1 31 0 56 -4 56 -5 0 -8 -4 -8 -10 0 -5
-4 -10 -10 -10 -5 0 -10 12 -10 26 0 14 4 23 10 19 9 -6 12 4 14 53 1 9 -6 17
-14 17 -10 0 -16 12 -18 33 -2 21 -9 32 -19 32 -12 0 -14 -8 -9 -45 9 -55 0
-59 -14 -6 -6 22 -16 42 -23 44 -6 2 -4 3 6 1 15 -2 17 2 12 27 -8 34 10 40
19 7 6 -23 7 -23 21 -4 15 19 15 19 17 -5 0 -13 2 -28 3 -34 2 -5 3 -16 4 -23
1 -8 10 -12 24 -10 14 2 21 9 19 20 -1 9 2 19 8 23 6 3 10 48 10 105 0 88 -2
100 -19 110 -20 10 -55 9 -67 -3 -4 -4 0 -7 9 -7 18 0 21 -9 11 -34 -9 -23
-24 -20 -24 4 0 11 -6 36 -14 54 -12 29 -29 41 -100 75 -65 31 -93 39 -116 35
-25 -6 -29 -4 -24 10 4 11 1 16 -10 16 -9 0 -16 5 -16 11 0 5 -16 17 -35 25
-32 13 -38 13 -60 -3 -31 -23 -34 -32 -42 -120 -7 -81 -18 -85 -26 -11 -3 30
0 49 7 52 8 3 8 7 0 13 -7 5 -9 28 -4 66 l6 59 -58 29 c-61 31 -73 34 -64 20
3 -5 -3 -11 -14 -14 -19 -5 -24 3 -21 29 1 11 -14 20 -184 99 -44 20 -93 44
-109 52 -24 13 -30 13 -38 2 -8 -11 -9 -11 -5 2 4 11 -3 20 -19 28 -36 16 -44
14 -44 -11 0 -23 -12 -17 -16 8 -5 34 -13 41 -38 37 -19 -4 -26 -1 -26 10 0
17 -27 31 -32 16 -2 -6 -11 -7 -20 -4 -9 4 -15 12 -12 19 3 8 -25 27 -74 49
l-79 37 -6 258 c-7 282 -12 646 -11 787 0 66 5 99 18 123 22 43 223 265 248
274 11 4 16 12 13 18 -3 5 1 10 9 10 9 0 16 8 16 18 0 10 5 23 11 29 7 7 12
79 13 210 1 198 1 198 -27 253 -33 66 -68 90 -221 152 -116 46 -206 109 -187
132 14 17 94 51 166 71 165 46 180 53 194 90 14 41 31 46 31 10 0 -18 5 -25
18 -25 10 0 22 3 26 7 3 4 14 7 24 8 41 4 288 88 299 102 7 9 19 13 29 9 9 -4
51 4 93 18 42 13 122 38 179 56 101 31 102 32 103 63 2 30 2 31 6 5 4 -28 26
-38 38 -18 3 6 17 10 30 10 13 0 54 11 92 24 37 13 88 29 113 36 51 15 72 30
53 37 -7 3 -13 11 -13 19 0 9 -4 13 -9 9 -5 -3 -12 -1 -16 5 -3 6 -34 9 -68 8
-35 -2 -63 1 -64 7 -2 6 22 10 56 10 33 0 62 3 67 8 11 11 46 9 39 -3 -3 -5
-1 -10 4 -10 6 0 11 13 11 29 0 23 -5 31 -22 34 -23 4 -23 4 1 6 17 1 21 5 17
17 -3 9 -6 17 -6 20 0 2 -11 -1 -25 -6 -30 -11 -43 4 -21 26 20 20 21 35 1 28
-8 -3 -13 -11 -12 -17 1 -7 -5 -12 -13 -12 -8 0 -18 -4 -22 -10 -4 -5 -8 9 -8
32 0 32 3 41 14 37 10 -4 13 5 13 35 0 35 -4 42 -31 55 -23 11 -34 12 -44 4
-10 -9 -16 -8 -23 3 -8 12 -10 12 -20 -1 -8 -11 -12 -12 -16 -2 -5 13 -24 17
-21 5 0 -5 -1 -15 -4 -23 -26 -76 -40 -131 -35 -137 4 -3 7 1 7 10 0 9 5 17
11 17 6 0 9 -7 5 -15 -4 -12 6 -15 56 -15 69 0 73 -9 7 -15 -24 -2 -45 -9 -47
-15 -2 -5 -11 -10 -20 -10 -15 0 -15 2 -2 10 11 7 5 8 -20 3 -19 -3 -36 -10
-38 -15 -5 -11 -32 -10 -32 2 0 6 -16 10 -35 10 -28 0 -35 -4 -35 -19 0 -17
-18 -31 -41 -31 -5 0 -9 7 -9 15 0 8 8 15 17 15 9 0 13 3 9 8 -10 9 -11 9
-101 11 -99 1 -97 16 3 17 132 2 202 9 200 19 -2 6 -6 9 -10 7 -15 -4 -8 19 7
24 8 4 15 10 15 15 0 12 -43 7 -52 -6 -8 -12 -13 -7 -22 23 -6 18 -3 22 13 22
18 0 20 6 18 42 l-2 41 -75 4 c-41 2 -76 6 -79 8 -8 9 144 5 158 -4 7 -5 15
-27 16 -50 2 -37 15 -73 15 -42 0 7 6 19 14 27 17 16 10 54 -10 54 -8 0 -14 5
-14 11 0 6 10 9 23 7 12 -2 21 -9 19 -16 -1 -6 5 -12 14 -12 8 0 12 5 9 10 -3
6 -1 10 4 10 6 0 11 8 11 18 0 14 -2 15 -10 2 -8 -12 -10 -11 -10 8 0 12 -11
32 -24 43 -22 19 -27 57 -6 44 10 -6 22 24 14 36 -3 5 5 9 17 9 22 0 22 0 3
14 -16 13 -21 12 -36 -1 -9 -8 -21 -12 -26 -9 -6 3 -12 -1 -15 -8 -4 -9 1 -17
11 -19 12 -3 11 -5 -5 -6 -13 0 -23 5 -23 12 0 9 -2 9 -9 -1 -4 -8 -14 -12
-22 -11 -8 1 -30 -5 -49 -13 l-35 -16 45 -1 c43 -1 44 -2 20 -14 -16 -9 -37
-11 -59 -6 -28 6 -46 2 -100 -26 -36 -19 -60 -34 -52 -35 11 0 11 -3 1 -15 -9
-11 -16 -12 -25 -5 -17 14 -45 2 -38 -16 3 -8 9 -11 14 -8 5 3 9 0 9 -6 0 -6
5 -8 11 -4 7 4 9 0 5 -14 -4 -11 -3 -23 2 -26 5 -3 7 -31 4 -62 -3 -41 -1 -59
9 -66 11 -7 11 -11 2 -15 -16 -6 -17 -35 -1 -51 9 -9 8 -12 -5 -12 -20 0 -24
-39 -6 -57 9 -9 7 -10 -9 -6 -17 4 -21 10 -16 29 5 18 2 24 -10 24 -9 0 -21
10 -25 23 -7 16 -8 10 -6 -25 1 -27 -1 -48 -6 -48 -5 0 -9 7 -9 15 0 8 -4 23
-9 33 -5 9 -14 29 -19 44 -9 22 -18 27 -54 31 l-43 4 42 1 c38 2 42 5 45 30 2
15 8 26 16 24 6 -1 12 2 12 8 0 5 -6 10 -14 10 -8 0 -17 6 -19 13 -3 7 -6 4
-6 -6 -1 -10 -6 -15 -11 -12 -7 4 -7 12 0 25 5 10 10 26 10 35 0 9 6 22 13 29
17 17 47 27 47 16 0 -6 5 -10 12 -10 8 0 6 6 -4 16 -18 18 -24 16 -120 -32
l-27 -14 2 108 2 109 -43 84 c-23 47 -58 102 -77 124 -19 22 -35 45 -35 50 0
6 -25 36 -54 68 -43 47 -55 67 -61 104 -10 68 -50 151 -77 162 -26 11 -78 54
-78 66 0 17 -97 78 -200 126 -67 31 -82 37 -120 44 -91 18 -199 47 -245 66
-16 7 -42 13 -57 14 -39 4 -124 59 -120 79 2 9 -2 16 -8 16 -6 0 -8 -4 -5 -10
9 -15 -8 -12 -31 5 -10 8 -26 15 -35 15 -34 0 -30 49 4 50 4 0 4 8 -1 17 -12
20 -44 26 -54 10 -5 -8 -8 -7 -8 5 0 9 5 20 11 23 6 5 4 12 -8 21 -25 19 -32
17 -26 -7 4 -15 0 -22 -16 -26 -15 -4 -20 -11 -16 -22 12 -30 10 -36 -12 -39
-13 -2 -23 2 -23 9 0 9 -4 8 -15 -1 -8 -7 -25 -10 -37 -7 -13 3 -68 7 -123 8
-148 3 -236 19 -248 47 -6 12 -13 22 -17 22 -17 0 -19 33 -4 62 8 16 13 37 10
45 -4 9 1 17 12 20 11 3 33 34 54 76 19 40 63 125 97 190 l62 117 -33 1 c-41
1 -79 12 -79 22 2 17 -15 6 -21 -15 -4 -16 -6 -18 -7 -5 -1 10 -12 22 -25 27
-13 5 -27 13 -30 18 -11 18 6 42 30 42 30 0 31 16 2 24 -36 9 -48 7 -48 -10 0
-8 -4 -13 -9 -9 -5 3 -12 -7 -14 -22 l-4 -28 -2 28 c0 16 -7 27 -15 27 -8 0
-17 6 -19 13 -4 10 -6 10 -6 0 -1 -7 -8 -13 -17 -13 -8 0 -12 5 -9 10 4 6 -8
10 -30 10 -24 0 -38 -5 -42 -16 -6 -15 -7 -15 -18 -1 -10 14 -13 12 -22 -18z
m72 -32 c0 -10 -5 -19 -10 -20 -9 -3 -10 2 -6 27 2 18 18 11 16 -7z m143 -23
c6 0 12 -5 12 -11 0 -6 -7 -9 -15 -6 -8 4 -17 2 -21 -4 -4 -6 -11 -6 -20 2
-21 18 -17 32 9 25 12 -3 28 -6 35 -6z m69 -72 c-3 -8 -6 -5 -6 6 -1 11 2 17
5 13 3 -3 4 -12 1 -19z m7 -44 c9 -3 16 -13 16 -20 0 -8 7 -17 16 -21 13 -5
12 -9 -8 -27 -12 -12 -40 -29 -61 -39 l-38 -17 -11 31 c-9 26 -14 30 -35 24
-18 -4 -24 -2 -21 7 3 7 14 14 26 16 12 2 20 8 17 13 -10 15 35 10 51 -5 8 -8
11 -23 8 -33 -5 -15 -4 -15 5 -3 5 8 8 25 5 37 -3 12 -3 27 1 32 7 13 8 13 29
5z m-218 -31 c-10 -10 -19 5 -10 18 6 11 8 11 12 0 2 -7 1 -15 -2 -18z m118
-82 c7 -11 -14 -20 -31 -13 -7 2 -10 8 -7 13 7 12 31 12 38 0z m1 -41 c-3 -5
-13 -10 -21 -10 -8 0 -12 5 -9 10 3 6 13 10 21 10 8 0 12 -4 9 -10z m35 -66
c0 -17 -22 -14 -28 4 -2 7 3 12 12 12 9 0 16 -7 16 -16z m-1020 -12 c0 -13
-12 -22 -22 -16 -10 6 -1 24 13 24 5 0 9 -4 9 -8z m-2815 -42 c-3 -5 -13 -10
-21 -10 -7 0 -19 -9 -26 -20 -11 -18 -14 -18 -30 -3 -23 20 -23 30 0 36 34 9
83 7 77 -3z m3788 -17 c-7 -2 -19 -2 -25 0 -7 3 -2 5 12 5 14 0 19 -2 13 -5z
m-3727 -50 c-4 -16 -8 -45 -10 -66 -4 -42 -18 -63 -36 -52 -8 5 -6 11 6 20 17
12 16 13 -4 19 -25 8 -27 18 -9 48 33 57 63 75 53 31z m-116 -108 c0 -14 -4
-25 -10 -25 -5 0 -10 11 -10 25 0 14 5 25 10 25 6 0 10 -11 10 -25z m109 -62
c-1 -21 -4 -46 -6 -56 -5 -17 -6 -17 -26 3 -16 18 -18 26 -9 41 7 10 12 26 12
34 0 8 7 15 15 15 12 0 15 -10 14 -37z m141 -19 c-8 -27 -8 -26 -9 16 0 32 2
40 9 29 5 -9 6 -28 0 -45z m-50 -31 c0 -21 -3 -24 -9 -14 -5 8 -7 20 -4 28 8
21 13 15 13 -14z m-296 -25 c6 -4 7 -10 4 -14 -11 -10 -35 19 -30 36 5 13 6
13 10 0 3 -8 10 -18 16 -22z m76 12 c0 -5 -2 -10 -4 -10 -3 0 -8 5 -11 10 -3
6 -1 10 4 10 6 0 11 -4 11 -10z m280 -12 c0 -16 -3 -19 -11 -11 -6 6 -8 16 -5
22 11 17 16 13 16 -11z m-105 -130 c7 -71 -2 -88 -23 -43 -15 32 -15 48 -2 40
8 -5 9 18 6 72 -6 92 7 42 19 -69z m55 96 c0 -8 -4 -14 -9 -14 -11 0 -22 26
-14 34 9 9 23 -3 23 -20z m10 -64 c0 -5 -9 -10 -21 -10 -11 0 -17 5 -14 10 3
6 13 10 21 10 8 0 14 -4 14 -10z m150 1 c0 -5 -7 -11 -15 -15 -15 -5 -20 5 -8
17 9 10 23 9 23 -2z m-113 -53 c-3 -8 -6 -5 -6 6 -1 11 2 17 5 13 3 -3 4 -12
1 -19z m-128 -55 c2 -2 -16 -2 -40 -2 -24 1 -36 3 -26 6 9 2 17 12 17 20 0 14
3 13 23 -3 12 -10 24 -20 26 -21z m-21 -36 c6 -5 12 -20 12 -34 0 -13 5 -33
10 -44 16 -28 -6 -24 -25 5 -8 13 -13 31 -9 40 3 9 1 16 -6 16 -11 0 -40 24
-40 33 0 8 43 -4 58 -16z m-844 -53 c-6 -3 -9 -16 -6 -29 2 -15 0 -25 -7 -25
-6 0 -11 14 -11 30 0 22 5 30 18 29 9 0 12 -3 6 -5z m66 2 c0 -3 -4 -8 -10
-11 -5 -3 -10 -1 -10 4 0 6 5 11 10 11 6 0 10 -2 10 -4z m-300 -36 c0 -5 -2
-10 -4 -10 -3 0 -8 5 -11 10 -3 6 -1 10 4 10 6 0 11 -4 11 -10z m5726 -15
c133 -23 245 -62 383 -132 180 -93 263 -154 337 -247 196 -247 203 -470 23
-686 -62 -75 -188 -160 -309 -208 -48 -19 -150 -47 -238 -64 l-154 -31 -246
28 c-228 25 -255 30 -375 71 -71 25 -148 54 -170 66 -72 36 -212 135 -259 182
l-45 45 -5 98 c-7 120 -43 241 -99 330 -24 39 -39 75 -39 94 0 50 53 121 166
223 121 110 218 164 355 201 156 40 518 57 675 30z m-5461 -71 c23 9 27 -12 5
-26 -11 -7 -20 -18 -20 -25 0 -23 -18 -13 -34 18 -15 29 -14 31 4 36 11 3 21
13 21 22 1 9 4 6 6 -7 3 -15 10 -22 18 -18z m3238 -4 c230 -17 407 -64 600
-161 134 -67 165 -90 277 -203 159 -160 215 -280 214 -456 -2 -288 -214 -522
-590 -653 -384 -134 -845 -99 -1217 90 -127 65 -218 130 -376 272 -177 157
-297 229 -414 246 -49 8 -102 37 -121 67 -7 12 -7 28 3 55 32 89 76 120 206
147 129 26 197 66 285 168 223 259 503 399 855 428 132 11 129 11 278 0z
m-3133 -154 c0 -22 -19 -30 -26 -12 -3 9 -10 13 -15 10 -5 -3 -9 0 -9 5 0 6
11 11 25 11 15 0 25 -6 25 -14z m290 -10 c0 -2 3 -11 6 -20 4 -11 1 -16 -11
-16 -9 0 -13 -4 -10 -10 9 -15 31 -12 49 5 14 14 17 14 36 -5 l22 -22 -34 -24
c-18 -14 -41 -23 -50 -20 -10 2 -21 0 -24 -5 -8 -14 -24 0 -18 16 3 7 13 11
22 9 15 -5 16 -4 1 8 -9 7 -18 30 -22 51 -5 32 -3 37 14 37 10 0 19 -2 19 -4z
m-54 -51 c-4 -14 -2 -25 4 -25 5 0 10 -4 10 -10 0 -11 -32 -1 -42 14 -15 22
-8 46 13 46 18 0 20 -4 15 -25z m-213 -5 c-3 -11 -7 -20 -9 -20 -2 0 -4 9 -4
20 0 11 4 20 9 20 5 0 7 -9 4 -20z m-174 -52 c1 -5 -5 -8 -13 -8 -19 0 -27 25
-13 39 9 9 13 7 19 -6 3 -10 7 -21 7 -25z m31 9 c0 -18 -2 -19 -10 -7 -13 20
-13 43 0 35 6 -3 10 -16 10 -28z m240 10 c0 -13 -6 -24 -13 -24 -11 0 -11 6
-3 24 14 29 16 29 16 0z m-120 -27 c0 -5 -2 -10 -4 -10 -3 0 -8 5 -11 10 -3 6
-1 10 4 10 6 0 11 -4 11 -10z m-10 -30 c0 -5 -4 -10 -10 -10 -5 0 -10 5 -10
10 0 6 5 10 10 10 6 0 10 -4 10 -10z m463 -32 c3 -21 2 -38 -4 -38 -5 0 -9 19
-9 42 0 49 5 47 13 -4z m-116 0 c-3 -8 -6 -5 -6 6 -1 11 2 17 5 13 3 -3 4 -12
1 -19z m-217 -8 c0 -5 -2 -10 -4 -10 -3 0 -8 5 -11 10 -3 6 -1 10 4 10 6 0 11
-4 11 -10z m-167 -20 c3 -11 1 -20 -4 -20 -5 0 -9 9 -9 20 0 11 2 20 4 20 2 0
6 -9 9 -20z m357 -6 c0 -8 -4 -12 -10 -9 -5 3 -10 13 -10 21 0 8 5 12 10 9 6
-3 10 -13 10 -21z m32 -6 c-7 -7 -12 -8 -12 -2 0 14 12 26 19 19 2 -3 -1 -11
-7 -17z m-247 -4 c33 -21 32 -35 -2 -32 -20 2 -27 -1 -25 -11 3 -12 0 -12 -12
-1 -21 16 -20 30 0 30 10 0 14 6 10 15 -7 19 -1 19 29 -1z m179 -20 c-4 -15
-2 -24 5 -24 15 0 13 -31 -3 -53 -10 -12 -16 -15 -21 -7 -4 6 -18 15 -32 21
-22 8 -23 10 -8 25 9 9 14 24 13 33 -4 19 21 41 39 34 8 -3 11 -14 7 -29z
m-241 -26 c6 -4 8 -10 5 -13 -12 -12 -35 19 -29 40 5 20 5 20 9 0 2 -11 9 -23
15 -27z m292 2 c-3 -5 -10 -10 -16 -10 -5 0 -9 5 -9 10 0 6 7 10 16 10 8 0 12
-4 9 -10z m-138 -72 c-3 -7 -5 -2 -5 12 0 14 2 19 5 13 2 -7 2 -19 0 -25z
m6602 -99 c-8 -4 -19 -3 -26 3 -11 9 -10 13 4 24 15 10 19 10 27 -3 5 -10 4
-18 -5 -24z m-6534 21 c3 -5 1 -10 -4 -10 -6 0 -11 5 -11 10 0 6 2 10 4 10 3
0 8 -4 11 -10z m6520 -60 c3 -5 1 -10 -4 -10 -6 0 -11 5 -11 10 0 6 2 10 4 10
3 0 8 -4 11 -10z m-208 -86 c-3 -3 -12 -4 -19 -1 -8 3 -5 6 6 6 11 1 17 -2 13
-5z m153 0 c0 -3 -7 -12 -15 -20 -8 -9 -15 -24 -15 -35 0 -11 -4 -17 -10 -14
-5 3 -9 21 -7 39 1 25 7 32 25 34 12 1 22 -1 22 -4z m220 -15 c0 -6 -6 -17
-14 -24 -11 -12 -13 -10 -13 11 0 14 5 24 13 24 8 0 14 -5 14 -11z m-634 -45
c-37 -33 -47 -23 -11 11 16 14 31 23 34 19 3 -3 -7 -17 -23 -30z m674 -21 c0
-5 -4 -15 -10 -23 -11 -18 -25 -7 -17 15 6 15 27 21 27 8z m40 -8 c0 -9 -6
-12 -15 -9 -8 4 -12 10 -9 15 8 14 24 10 24 -6z m-711 -25 c-6 -16 -15 -30
-19 -30 -5 0 -3 14 3 30 6 17 15 30 19 30 4 0 2 -13 -3 -30z m387 5 c-3 -8 0
-15 6 -15 6 0 9 -3 5 -6 -10 -11 -26 6 -20 21 3 8 7 15 10 15 3 0 3 -7 -1 -15z
m399 -75 c3 -5 -1 -10 -10 -10 -9 0 -13 5 -10 10 3 6 8 10 10 10 2 0 7 -4 10
-10z m-290 -29 c-4 -13 3 -29 21 -48 25 -27 25 -28 6 -31 -12 -2 -23 -13 -25
-25 -4 -18 -5 -17 -6 6 -1 25 -4 27 -42 27 -23 0 -38 4 -34 10 3 5 12 7 20 3
10 -3 15 1 15 11 0 9 7 19 15 22 8 3 17 14 20 25 4 10 9 19 11 19 3 0 3 -9 -1
-19z m-550 -71 c-3 -6 -15 -10 -25 -10 -10 0 -22 -9 -25 -20 -3 -11 -10 -20
-15 -20 -5 0 -7 7 -3 16 5 14 1 15 -25 9 -20 -4 -32 -3 -32 4 0 15 42 41 67
41 15 0 23 6 23 17 0 14 3 13 21 -5 11 -12 17 -27 14 -32z m428 23 c9 -3 17
-11 17 -17 0 -13 -104 -15 -117 -2 -3 3 -1 6 6 6 7 0 19 7 28 16 9 9 22 12 32
8 9 -3 24 -9 34 -11z m431 -49 c3 -8 2 -12 -4 -9 -6 3 -10 10 -10 16 0 14 7
11 14 -7z m-427 -66 c-3 -8 -6 -5 -6 6 -1 11 2 17 5 13 3 -3 4 -12 1 -19z
m-584 -45 c-4 -9 -9 -9 -24 0 -24 15 -24 23 -1 36 13 7 18 6 23 -7 3 -9 4 -22
2 -29z m380 -8 c-8 -22 -22 -18 -16 5 3 11 9 17 14 15 4 -3 6 -12 2 -20z m287
15 c0 -5 -7 -10 -15 -10 -8 0 -15 5 -15 10 0 6 7 10 15 10 8 0 15 -4 15 -10z
m-123 -16 c-3 -3 -12 -4 -19 -1 -8 3 -5 6 6 6 11 1 17 -2 13 -5z m46 -1 c-7
-2 -19 -2 -25 0 -7 3 -2 5 12 5 14 0 19 -2 13 -5z m-86 -9 c-3 -3 -12 -4 -19
-1 -8 3 -5 6 6 6 11 1 17 -2 13 -5z m-497 -12 c0 -4 -5 -13 -10 -18 -7 -7 -2
-15 15 -24 14 -7 25 -16 25 -20 0 -12 -55 2 -63 16 -4 8 -14 14 -21 14 -8 0
-16 6 -19 14 -6 14 4 18 61 25 6 0 12 -3 12 -7z m485 -11 c3 -5 1 -12 -5 -16
-5 -3 -10 1 -10 9 0 18 6 21 15 7z m35 -7 c0 -8 -4 -12 -10 -9 -5 3 -10 10
-10 16 0 5 5 9 10 9 6 0 10 -7 10 -16z m-540 -84 c0 -10 -7 -20 -15 -24 -9 -3
-15 0 -15 9 0 7 -10 15 -22 18 -23 4 -23 4 2 14 31 13 50 6 50 -17z m-50 -14
c0 -3 -4 -8 -10 -11 -5 -3 -10 -1 -10 4 0 6 5 11 10 11 6 0 10 -2 10 -4z m110
-11 c7 -8 9 -15 6 -15 -4 0 -14 7 -22 15 -9 8 -11 15 -6 15 5 0 15 -7 22 -15z
m-48 -47 c-7 -7 -12 -8 -12 -2 0 14 12 26 19 19 2 -3 -1 -11 -7 -17z m-5967
-698 c3 -5 1 -10 -4 -10 -6 0 -11 5 -11 10 0 6 2 10 4 10 3 0 8 -4 11 -10z
m90 -9 c-3 -11 -1 -22 5 -26 5 -3 10 -23 10 -45 0 -33 -3 -37 -20 -33 -11 3
-27 0 -35 -7 -12 -10 -16 -9 -21 3 -3 9 -14 19 -23 22 -15 5 -16 10 -7 39 l10
34 14 -27 c16 -34 55 -36 60 -2 3 19 0 21 -22 15 -14 -3 -26 -2 -26 2 0 17 15
32 35 37 11 2 21 5 23 6 2 0 1 -8 -3 -18z m-575 -1 c0 -5 -2 -10 -4 -10 -3 0
-8 5 -11 10 -3 6 -1 10 4 10 6 0 11 -4 11 -10z m-43 -52 c-3 -8 -6 -5 -6 6 -1
11 2 17 5 13 3 -3 4 -12 1 -19z m350 -30 c-5 -17 -2 -19 19 -14 22 6 24 3 24
-28 0 -34 -20 -62 -35 -48 -5 4 -5 -1 -2 -10 3 -10 2 -20 -4 -24 -17 -10 -22
3 -10 25 8 14 8 22 1 26 -6 4 -8 15 -5 25 3 10 2 21 -3 24 -5 3 -7 17 -5 31 3
13 10 22 15 19 5 -4 7 -15 5 -26z m186 -30 c2 -7 0 -21 -5 -30 -7 -14 -5 -18
11 -18 11 0 22 8 24 18 4 13 5 12 6 -5 1 -15 -9 -26 -29 -37 -18 -9 -30 -10
-30 -4 0 7 -14 8 -35 5 -19 -3 -35 -2 -35 3 0 5 15 10 33 12 28 3 32 7 35 36
3 32 16 43 25 20z m101 -17 c4 -5 3 -16 0 -25 -6 -15 -8 -15 -20 1 -7 10 -14
21 -14 26 0 10 28 9 34 -2z m-727 -63 c-3 -8 -6 -5 -6 6 -1 11 2 17 5 13 3 -3
4 -12 1 -19z m691 -29 c-17 -11 -29 22 -15 39 9 11 13 9 19 -9 6 -15 4 -25 -4
-30z m-178 31 c-19 -13 -30 -13 -30 0 0 6 10 10 23 10 18 0 19 -2 7 -10z m105
-98 c-10 -28 -20 -1 -16 40 l4 43 8 -35 c5 -19 6 -41 4 -48z m-105 36 c0 -19
-16 -5 -17 14 -2 18 0 20 7 8 5 -8 10 -18 10 -22z m-173 -35 c-3 -10 -5 -2 -5
17 0 19 2 27 5 18 2 -10 2 -26 0 -35z m163 -13 c0 -5 -4 -10 -10 -10 -5 0 -10
5 -10 10 0 6 5 10 10 10 6 0 10 -4 10 -10z m17 -513 c-6 -20 -27 -19 -27 2 0
14 5 19 15 14 9 -3 14 -10 12 -16z m-71 -54 c-10 -10 -19 5 -10 18 6 11 8 11
12 0 2 -7 1 -15 -2 -18z m24 -109 c0 -8 -5 -12 -10 -9 -6 4 -8 11 -5 16 9 14
15 11 15 -7z m324 -40 c3 -8 2 -12 -4 -9 -6 3 -10 10 -10 16 0 14 7 11 14 -7z
m-52 -39 c0 -5 -5 -11 -11 -13 -6 -2 -11 4 -11 13 0 9 5 15 11 13 6 -2 11 -8
11 -13z m63 -17 c-2 -32 -25 -35 -25 -4 0 15 6 26 13 26 8 0 13 -10 12 -22z
m-285 -38 c0 -30 -4 -40 -16 -40 -13 0 -14 3 -4 15 7 8 9 22 6 31 -6 15 0 34
10 34 2 0 4 -18 4 -40z m91 -17 c-9 -15 -10 -12 -10 17 0 29 1 32 10 18 7 -12
7 -24 0 -35z m109 27 c0 -5 -4 -10 -10 -10 -5 0 -10 5 -10 10 0 6 5 10 10 10
6 0 10 -4 10 -10z m210 -549 c0 -28 -17 -35 -37 -16 -14 14 -14 18 -2 26 23
14 39 10 39 -10z m-130 -35 c0 -3 -4 -8 -10 -11 -5 -3 -10 -1 -10 4 0 6 5 11
10 11 6 0 10 -2 10 -4z m-218 -41 c-6 -34 -12 -32 -12 6 0 16 4 28 9 25 4 -3
6 -17 3 -31z m30 13 c-7 -7 -12 -8 -12 -2 0 14 12 26 19 19 2 -3 -1 -11 -7
-17z m208 2 c0 -5 -7 -10 -16 -10 -8 0 -12 5 -9 10 3 6 10 10 16 10 5 0 9 -4
9 -10z m-360 -85 c0 -8 -4 -15 -10 -15 -5 0 -7 7 -4 15 4 8 8 15 10 15 2 0 4
-7 4 -15z m422 -35 c-25 -23 -40 -27 -22 -5 7 8 9 15 6 15 -4 0 -1 6 6 14 8 9
17 11 22 5 6 -5 2 -17 -12 -29z m-252 15 c7 -9 11 -18 8 -21 -8 -8 -58 18 -52
27 8 14 30 10 44 -6z m91 5 c10 -6 19 -15 19 -21 0 -6 -5 -7 -11 -3 -8 4 -9
-1 -5 -17 l6 -24 -11 23 c-7 12 -18 22 -25 22 -8 0 -11 6 -8 15 7 18 9 18 35
5z m-154 -6 c-3 -3 -12 -4 -19 -1 -8 3 -5 6 6 6 11 1 17 -2 13 -5z m203 -4 c0
-5 -2 -10 -4 -10 -3 0 -8 5 -11 10 -3 6 -1 10 4 10 6 0 11 -4 11 -10z m63 -3
c4 3 7 2 7 -4 0 -14 -38 -24 -46 -12 -9 16 6 31 20 20 7 -6 16 -8 19 -4z
m-487 -44 c-10 -10 -19 5 -10 18 6 11 8 11 12 0 2 -7 1 -15 -2 -18z m348 -38
c15 -11 31 -55 21 -55 -15 0 -85 44 -85 53 0 6 10 19 23 31 22 21 22 21 25 1
2 -11 9 -25 16 -30z m5616 45 c0 -5 -5 -10 -11 -10 -5 0 -7 5 -4 10 3 6 8 10
11 10 2 0 4 -4 4 -10z m101 0 c5 0 9 -5 9 -11 0 -6 -9 -9 -19 -6 -14 3 -18 1
-14 -9 3 -8 0 -14 -6 -14 -6 0 -11 12 -11 26 0 20 4 25 16 20 9 -3 20 -6 25
-6z m-5633 -69 c-15 -5 -18 3 -11 29 l7 25 6 -25 c3 -14 2 -27 -2 -29z m50 37
c-6 -18 -28 -21 -28 -4 0 9 7 16 16 16 9 0 14 -5 12 -12z m5672 -2 c0 -8 -4
-18 -10 -21 -5 -3 -10 3 -10 14 0 12 5 21 10 21 6 0 10 -6 10 -14z m-175 -6
c3 -5 -1 -10 -10 -10 -9 0 -13 5 -10 10 3 6 8 10 10 10 2 0 7 -4 10 -10z m65
-25 c0 -9 -6 -12 -15 -9 -8 4 -15 10 -15 15 0 5 7 9 15 9 8 0 15 -7 15 -15z
m40 5 c0 -5 -5 -10 -11 -10 -5 0 -7 5 -4 10 3 6 8 10 11 10 2 0 4 -4 4 -10z
m79 -22 c-8 -14 -14 -18 -17 -10 -4 13 17 46 25 38 3 -2 -1 -15 -8 -28z m73
-4 c-3 -25 -7 -32 -13 -23 -13 21 -11 59 4 59 9 0 12 -11 9 -36z m-6002 6 c0
-5 -2 -10 -4 -10 -3 0 -8 5 -11 10 -3 6 -1 10 4 10 6 0 11 -4 11 -10z m5765
-17 c19 -12 18 -13 -7 -13 -14 0 -33 -3 -41 -6 -15 -5 -31 21 -22 36 6 10 44
1 70 -17z m315 -3 c0 -5 -4 -10 -10 -10 -5 0 -10 5 -10 10 0 6 5 10 10 10 6 0
10 -4 10 -10z m-6610 -10 c0 -5 -7 -10 -16 -10 -8 0 -12 5 -9 10 3 6 10 10 16
10 5 0 9 -4 9 -10z m75 -14 c9 -8 33 -25 55 -37 22 -13 40 -26 40 -31 0 -4 7
-8 16 -8 10 0 14 6 10 15 -3 8 -1 15 4 15 6 0 10 -19 10 -42 l0 -42 -37 35
c-21 19 -55 48 -77 63 -31 23 -40 26 -47 15 -7 -11 -9 -10 -9 4 0 9 -7 17 -15
17 -8 0 -15 5 -15 10 0 14 47 4 65 -14z m6542 -18 c-3 -8 -6 -5 -6 6 -1 11 2
17 5 13 3 -3 4 -12 1 -19z m-6623 -25 c-5 -19 -10 -21 -25 -12 -15 8 -19 6
-19 -7 0 -10 -3 -15 -6 -11 -11 11 8 49 22 43 9 -3 14 1 14 11 0 11 3 14 10 7
5 -5 7 -19 4 -31z m6711 -50 l4 -79 -30 4 c-16 2 -30 7 -30 11 -7 29 -6 71 2
71 5 0 9 9 9 20 0 11 7 20 15 20 9 0 15 9 15 22 0 12 3 19 6 16 3 -4 7 -42 9
-85z m-158 20 c-3 -10 -5 -2 -5 17 0 19 2 27 5 18 2 -10 2 -26 0 -35z m-92 27
c8 -12 -4 -54 -13 -45 -3 3 -8 17 -9 30 -4 25 10 34 22 15z m-6405 -16 c0 -8
-5 -12 -10 -9 -6 4 -8 11 -5 16 9 14 15 11 15 -7z m6360 6 c0 -5 -7 -7 -15 -4
-8 4 -15 8 -15 10 0 2 7 4 15 4 8 0 15 -4 15 -10z m-144 -27 c-10 -10 -19 5
-10 18 6 11 8 11 12 0 2 -7 1 -15 -2 -18z m-5796 -3 c0 -5 -4 -10 -10 -10 -5
0 -10 5 -10 10 0 6 5 10 10 10 6 0 10 -4 10 -10z m6110 -31 c0 -18 -4 -28 -10
-24 -5 3 -10 20 -10 36 0 18 4 28 10 24 6 -3 10 -20 10 -36z m-6550 21 c0 -5
-4 -10 -10 -10 -5 0 -10 5 -10 10 0 6 5 10 10 10 6 0 10 -4 10 -10z m6261 -45
c14 5 19 2 19 -14 0 -27 -16 -35 -30 -14 -9 15 -10 14 -5 -9 3 -16 1 -28 -5
-28 -12 0 -21 38 -16 65 3 11 5 25 7 30 1 6 4 0 6 -13 3 -17 9 -21 24 -17z
m306 -7 c-3 -7 -5 -2 -5 12 0 14 2 19 5 13 2 -7 2 -19 0 -25z m-6318 6 c2 -2
2 -6 -1 -9 -9 -10 -58 6 -52 16 5 9 41 3 53 -7z m-370 -85 c-5 -18 -2 -32 8
-41 12 -13 12 -16 -2 -28 -25 -21 -34 0 -25 65 6 37 5 64 -1 71 -7 8 -6 13 3
16 16 6 27 -46 17 -83z m7001 62 c0 -4 -17 -8 -37 -9 l-38 -2 24 20 c18 16 27
18 37 9 8 -6 14 -14 14 -18z m-6930 -1 c0 -5 -8 -10 -17 -10 -15 0 -16 2 -3
10 19 12 20 12 20 0z m6605 -9 c3 -5 1 -12 -5 -16 -5 -3 -10 1 -10 9 0 18 6
21 15 7z m-6305 -30 c0 -6 -4 -13 -10 -16 -5 -3 -10 1 -10 9 0 9 5 16 10 16 6
0 10 -4 10 -9z m6220 -1 c0 -5 -4 -10 -10 -10 -5 0 -10 5 -10 10 0 6 5 10 10
10 6 0 10 -4 10 -10z m-6440 -4 c0 -3 -4 -8 -10 -11 -5 -3 -10 -1 -10 4 0 6 5
11 10 11 6 0 10 -2 10 -4z m7090 -32 c0 -8 -5 -12 -10 -9 -6 4 -8 11 -5 16 9
14 15 11 15 -7z m-410 -4 c0 -5 -4 -10 -10 -10 -5 0 -10 5 -10 10 0 6 5 10 10
10 6 0 10 -4 10 -10z m170 -5 c0 -8 -4 -15 -10 -15 -5 0 -10 7 -10 15 0 8 5
15 10 15 6 0 10 -7 10 -15z m97 -1 c-3 -3 -12 -4 -19 -1 -8 3 -5 6 6 6 11 1
17 -2 13 -5z m203 -24 c0 -10 -4 -22 -10 -25 -6 -4 -10 7 -10 25 0 18 4 29 10
25 6 -3 10 -15 10 -25z m-680 8 c0 -4 -4 -9 -9 -12 -4 -3 -11 -19 -14 -36 -4
-16 -10 -30 -15 -30 -5 0 -7 12 -4 26 4 21 2 25 -9 19 -12 -8 -12 -6 -1 8 8 9
11 21 7 26 -4 7 4 10 19 9 15 -1 26 -6 26 -10z m639 -35 c-1 -38 -1 -38 -9 -9
-8 27 -6 46 6 46 2 0 4 -17 3 -37z m-279 17 c0 -5 -5 -10 -11 -10 -5 0 -7 5
-4 10 3 6 8 10 11 10 2 0 4 -4 4 -10z m17 -22 c-3 -8 -6 -5 -6 6 -1 11 2 17 5
13 3 -3 4 -12 1 -19z m-236 -29 c18 -26 19 -33 8 -40 -22 -14 -29 -11 -29 12
0 11 -5 29 -10 40 -17 31 6 22 31 -12z m650 4 c-8 -15 -10 -15 -11 -2 0 17 10
32 18 25 2 -3 -1 -13 -7 -23z m-564 -30 c-3 -10 -5 -4 -5 12 0 17 2 24 5 18 2
-7 2 -21 0 -30z m333 -183 c11 0 20 -4 20 -9 0 -5 -15 -9 -34 -8 -19 0 -33 4
-30 8 2 4 -5 5 -16 2 -14 -4 -20 0 -20 10 0 20 16 31 25 17 11 -19 27 2 20 27
-3 14 -2 34 2 46 6 16 9 7 11 -35 3 -50 6 -58 22 -58z m380 55 c0 -25 -4 -45
-10 -45 -5 0 -10 20 -10 45 0 25 5 45 10 45 6 0 10 -20 10 -45z m-568 -17 c-9
-9 -12 -7 -12 12 0 19 3 21 12 12 9 -9 9 -15 0 -24z m418 -29 c-10 -17 -14
-19 -21 -8 -5 8 -2 20 7 30 7 8 15 22 15 30 1 8 4 4 6 -8 2 -12 -1 -32 -7 -44z
m-644 14 c-3 -3 -13 -2 -23 2 -17 8 -17 8 0 12 9 3 18 10 18 16 1 7 3 4 6 -6
3 -10 2 -21 -1 -24z m269 4 c25 -19 11 -41 -15 -24 -20 12 -28 37 -12 37 5 0
16 -6 27 -13z m46 -10 c-1 -12 -15 -9 -19 4 -3 6 1 10 8 8 6 -3 11 -8 11 -12z
m292 -24 c-5 -13 -1 -15 29 -9 28 5 38 2 53 -14 16 -18 17 -23 5 -30 -22 -14
-36 -12 -55 7 -14 13 -18 14 -25 2 -7 -11 -10 -10 -16 4 -3 9 -14 17 -23 17
-14 1 -14 2 2 14 9 7 17 19 17 25 0 7 4 10 10 6 5 -3 6 -13 3 -22z m113 -7 c0
-13 -4 -22 -8 -19 -11 6 -10 43 1 43 5 0 8 -11 7 -24z m-386 -76 c0 -5 -7 -7
-15 -4 -8 4 -15 8 -15 10 0 2 7 4 15 4 8 0 15 -4 15 -10z m0 -105 c0 -16 -35
-21 -45 -6 -4 8 9 15 38 20 4 0 7 -6 7 -14z m430 -17 c0 -19 -2 -20 -10 -8
-13 19 -13 30 0 30 6 0 10 -10 10 -22z m-340 -8 c0 -5 -4 -10 -10 -10 -5 0
-10 5 -10 10 0 6 5 10 10 10 6 0 10 -4 10 -10z m185 -10 c-4 -6 -10 -8 -15 -5
-11 7 -21 -22 -13 -42 5 -17 5 -17 -11 -2 -15 14 -16 19 -4 38 7 11 21 21 31
21 10 0 15 -5 12 -10z m-168 -52 c-3 -8 -6 -5 -6 6 -1 11 2 17 5 13 3 -3 4
-12 1 -19z m-5424 -13 c-3 -9 -8 -14 -10 -11 -3 3 -2 9 2 15 9 16 15 13 8 -4z
m5837 6 c0 -17 -18 -21 -24 -6 -3 9 0 15 9 15 8 0 15 -4 15 -9z m-242 -40 c3
-8 -1 -12 -9 -9 -7 2 -15 10 -17 17 -3 8 1 12 9 9 7 -2 15 -10 17 -17z m-5358
-37 c0 -8 -5 -12 -10 -9 -6 4 -8 11 -5 16 9 14 15 11 15 -7z m5529 -116 c0 -7
-4 -22 -9 -33 -7 -16 -8 -14 -7 12 1 18 5 33 10 33 4 0 7 -6 6 -12z m-3892
-220 c-3 -8 -6 -5 -6 6 -1 11 2 17 5 13 3 -3 4 -12 1 -19z m-47 -3 c-7 -9 -15
-13 -17 -11 -7 7 7 26 19 26 6 0 6 -6 -2 -15z m-43 -122 c-3 -10 -5 -4 -5 12
0 17 2 24 5 18 2 -7 2 -21 0 -30z m44 -70 c-9 -16 -10 -14 -11 12 0 21 3 26
11 18 8 -8 8 -16 0 -30z"/>
<path d="M7175 7019 c-78 -26 -162 -84 -197 -134 -15 -22 -42 -74 -60 -115
-29 -67 -32 -86 -33 -170 0 -86 3 -101 31 -160 76 -159 169 -238 314 -267 143
-28 255 2 363 97 97 87 147 194 147 314 0 69 -9 108 -51 216 -27 71 -33 79
-114 143 -52 43 -102 74 -131 83 -69 21 -197 17 -269 -7z m-46 -294 c52 -26
54 -66 8 -120 l-33 -38 -32 40 c-39 50 -40 72 -6 107 31 31 27 30 63 11z m332
-38 c78 -52 88 -137 25 -201 -40 -40 -85 -51 -129 -32 -103 44 -117 180 -24
236 42 26 86 25 128 -3z m-277 -248 c13 -20 13 -24 -2 -44 -15 -21 -19 -21
-39 -8 -27 18 -29 30 -6 55 21 23 29 23 47 -3z"/>
<path d="M5160 6936 c-175 -49 -303 -168 -360 -336 -60 -176 -1 -385 147 -520
201 -184 502 -173 691 24 155 161 184 372 81 583 -61 126 -172 215 -310 248
-76 18 -187 18 -249 1z m-33 -360 l37 -33 -33 -42 c-20 -26 -41 -41 -55 -41
-25 0 -96 55 -96 75 0 15 77 75 97 75 7 0 30 -15 50 -34z m369 -17 c37 -34 54
-72 54 -119 0 -88 -62 -153 -145 -153 -81 0 -145 58 -152 140 -6 56 20 102 77
141 47 32 127 27 166 -9z m-322 -311 c15 -21 14 -24 -14 -52 l-30 -30 -30 29
-30 29 22 23 c27 29 62 29 82 1z"/>
<path d="M1960 6770 c0 -18 3 -19 21 -9 17 9 19 13 8 20 -22 14 -29 11 -29
-11z"/>
<path d="M7058 8423 c7 -3 16 -2 19 1 4 3 -2 6 -13 5 -11 0 -14 -3 -6 -6z"/>
<path d="M1482 8393 c2 -9 11 -17 21 -19 18 -2 18 -2 1 17 -21 23 -26 24 -22
2z"/>
<path d="M2020 8393 c1 -27 17 -31 45 -13 l30 20 -37 0 c-21 0 -38 -3 -38 -7z"/>
<path d="M2120 8331 c0 -38 5 -73 10 -76 6 -3 10 3 10 14 0 28 36 47 58 29 12
-9 11 -6 -3 14 -12 16 -28 27 -39 25 -11 -1 -21 4 -23 11 -3 6 3 12 12 12 22
0 15 34 -8 38 -15 3 -17 -5 -17 -67z"/>
<path d="M2079 8363 c-13 -16 -30 -39 -37 -52 -12 -21 -11 -26 7 -45 l21 -20
0 34 c0 26 3 31 10 20 5 -8 11 -12 14 -10 5 6 18 100 13 100 -2 0 -14 -12 -28
-27z"/>
<path d="M6270 8380 c0 -5 5 -10 10 -10 6 0 10 5 10 10 0 6 -4 10 -10 10 -5 0
-10 -4 -10 -10z"/>
<path d="M5185 8360 c3 -5 17 -10 31 -10 13 0 24 5 24 10 0 6 -14 10 -31 10
-17 0 -28 -4 -24 -10z"/>
<path d="M5283 8356 c8 -19 -31 -28 -72 -16 -54 15 -71 5 -71 -42 0 -34 13
-42 39 -26 16 10 23 10 33 0 6 -6 20 -12 29 -12 19 0 35 -30 16 -31 -7 0 -1
-5 13 -11 15 -6 20 -12 13 -15 -23 -8 -14 -23 13 -23 32 0 53 25 54 63 0 27
22 38 35 17 10 -16 45 -12 45 6 0 9 5 13 13 9 6 -4 4 0 -5 8 -10 8 -18 19 -18
26 0 6 8 11 18 12 9 0 4 5 -13 10 -34 10 -60 4 -50 -11 3 -5 0 -10 -9 -10 -8
0 -21 -3 -30 -6 -9 -3 -16 -1 -16 5 0 6 7 11 15 11 27 0 16 20 -12 21 -18 1
-21 3 -10 6 22 6 12 23 -15 23 -13 0 -18 -5 -15 -14z m-88 -56 c-11 -5 -27 -9
-35 -9 -9 0 -8 4 5 9 11 5 27 9 35 9 9 0 8 -4 -5 -9z m114 -62 c-7 -13 -14
-18 -16 -11 -3 7 1 22 8 35 7 13 14 18 16 11 3 -7 -1 -22 -8 -35z"/>
<path d="M1520 8347 c0 -8 6 -20 14 -26 12 -10 13 -8 9 9 -7 25 -23 37 -23 17z"/>
<path d="M7160 8350 c0 -13 11 -13 30 0 12 8 11 10 -7 10 -13 0 -23 -4 -23
-10z"/>
<path d="M1555 8341 c-3 -5 -1 -12 5 -16 5 -3 10 1 10 9 0 18 -6 21 -15 7z"/>
<path d="M5475 8327 c-21 -16 -12 -37 16 -37 21 0 26 15 8 26 -8 4 -7 9 2 15
8 5 9 9 3 9 -5 0 -18 -6 -29 -13z"/>
<path d="M7089 8327 c-23 -17 -20 -45 3 -39 11 3 17 10 14 18 -6 16 3 18 38 4
16 -6 27 -6 31 0 4 6 -3 10 -15 10 -12 0 -29 4 -38 9 -11 6 -23 5 -33 -2z"/>
<path d="M7246 8331 c-11 -4 -15 -10 -9 -14 5 -3 19 0 29 8 20 15 11 18 -20 6z"/>
<path d="M7537 8282 c-14 -14 -30 -23 -34 -18 -4 4 -1 11 6 15 9 6 1 10 -24
13 l-38 4 24 -19 24 -20 -25 7 c-14 4 -34 9 -45 11 -11 3 -21 9 -23 15 -2 6
-16 3 -34 -6 -23 -12 -33 -13 -44 -3 -11 9 -14 9 -14 0 0 -7 -4 -10 -8 -7 -8
5 -99 10 -134 7 -12 -1 -18 -9 -18 -23 0 -17 3 -19 9 -9 5 8 16 11 30 6 39
-12 22 -25 -34 -25 -51 0 -69 -10 -45 -25 6 -3 10 -16 10 -28 0 -18 -2 -19
-10 -7 -8 13 -9 13 -14 0 -8 -26 -17 -74 -17 -93 0 -15 -3 -15 -22 -5 -19 11
-20 13 -4 16 20 4 21 7 6 33 -11 22 -31 17 -23 -6 7 -18 -14 -57 -27 -50 -5 4
-9 -3 -9 -15 0 -12 -4 -18 -10 -15 -6 4 -10 -5 -10 -19 0 -27 15 -35 23 -13 4
10 6 10 6 0 1 -7 15 -14 34 -14 22 -1 25 -3 10 -6 -15 -3 -20 -9 -16 -20 5
-13 3 -13 -15 -4 -34 18 -42 13 -27 -16 14 -26 13 -29 -10 -49 -25 -22 -35
-41 -13 -28 8 5 9 -3 5 -29 -3 -21 -2 -37 2 -37 8 0 6 -70 -4 -152 -6 -46 -5
-48 19 -48 21 0 26 5 26 25 0 16 4 23 13 19 8 -3 19 2 26 10 11 13 9 15 -13
13 -34 -3 -34 17 1 23 21 4 29 11 31 32 4 32 -13 45 -27 21 -10 -17 -10 -17
-11 0 0 19 -19 24 -21 5 -2 -17 -16 41 -18 70 -1 14 5 22 15 22 11 0 14 -5 10
-16 -4 -11 -2 -15 8 -11 8 3 17 -1 20 -9 9 -23 7 -27 -9 -20 -8 3 -15 1 -15
-4 0 -6 12 -10 26 -10 24 0 26 3 22 35 -2 19 -1 35 2 35 9 0 50 -57 50 -70 0
-5 5 -10 12 -10 6 0 8 3 5 7 -4 3 3 11 16 17 12 6 23 21 25 33 2 14 8 20 17
17 14 -6 41 33 37 54 -2 6 2 12 8 12 5 0 10 5 10 11 0 8 -4 8 -14 0 -12 -10
-17 -8 -25 8 -6 11 -11 29 -11 41 0 17 4 20 20 15 14 -5 20 -2 20 9 0 13 -7
15 -30 11 -22 -4 -30 -1 -30 10 0 9 -9 15 -25 15 -14 0 -25 5 -25 10 0 6 18
10 39 10 22 0 42 6 45 13 3 6 3 2 1 -10 -5 -18 0 -22 27 -28 17 -4 39 -14 47
-23 13 -13 13 -14 -7 -8 -20 7 -22 4 -22 -34 0 -23 3 -40 8 -38 4 2 30 27 57
57 31 33 45 56 38 58 -20 7 -15 22 5 16 20 -5 89 64 76 76 -4 3 -9 0 -11 -6
-3 -7 -21 -13 -40 -13 -20 0 -33 3 -29 8 4 4 11 7 14 7 19 0 99 30 115 43 26
22 21 38 -15 50 -32 10 -32 10 19 11 47 1 54 4 82 38 17 21 31 40 31 43 0 3
-13 6 -28 7 -19 1 -37 -7 -55 -25z m-296 -73 c-12 -10 -21 -22 -21 -28 0 -6
-4 -11 -10 -11 -16 0 -12 42 7 62 13 14 19 15 31 6 12 -10 11 -15 -7 -29z m53
16 c3 -8 1 -15 -4 -15 -6 0 -10 7 -10 15 0 8 2 15 4 15 2 0 6 -7 10 -15z m146
5 c0 -13 -30 -13 -50 0 -11 7 -7 10 18 10 17 0 32 -4 32 -10z m-204 -75 c-3
-9 -11 -13 -16 -10 -8 5 -7 11 1 21 14 18 24 11 15 -11z m119 5 c-3 -5 -1 -10
4 -10 6 0 11 -4 11 -10 0 -5 -9 -10 -20 -10 -13 0 -20 7 -20 20 0 11 7 20 16
20 8 0 12 -4 9 -10z m65 -20 c0 -5 -9 -10 -20 -10 -11 0 -20 5 -20 10 0 6 9
10 20 10 11 0 20 -4 20 -10z m-296 -6 c12 -5 13 -10 5 -25 -14 -27 -29 -24
-29 6 0 27 1 28 24 19z m66 -64 c0 -5 -4 -10 -10 -10 -5 0 -10 5 -10 10 0 6 5
10 10 10 6 0 10 -4 10 -10z m-64 -47 c-11 -11 -19 6 -11 24 8 17 8 17 12 0 3
-10 2 -21 -1 -24z m-81 -2 c3 -5 1 -12 -5 -16 -5 -3 -10 1 -10 9 0 18 6 21 15
7z m56 -38 c-8 -15 -10 -15 -11 -2 0 17 10 32 18 25 2 -3 -1 -13 -7 -23z m-14
-29 c-3 -4 -2 -15 4 -26 8 -15 13 -17 25 -7 9 7 14 8 14 1 0 -6 -9 -14 -20
-17 -25 -8 -27 -27 -2 -23 11 2 18 -4 20 -19 4 -29 -11 -29 -37 -1 -16 16 -18
25 -10 35 7 8 8 13 1 13 -5 0 -9 11 -9 25 0 14 4 25 10 25 6 0 7 -3 4 -6z m97
-25 c-3 -5 -10 -7 -15 -3 -5 3 -7 10 -3 15 3 5 10 7 15 3 5 -3 7 -10 3 -15z
m-144 -44 c0 -7 6 -15 13 -18 6 -2 9 -7 6 -11 -13 -14 -39 7 -39 31 0 13 4 21
10 18 6 -3 10 -12 10 -20z"/>
<path d="M6957 8293 c-4 -3 -7 -15 -7 -25 0 -11 -4 -16 -10 -13 -5 3 -10 -1
-10 -10 0 -9 4 -14 9 -11 5 4 11 -11 14 -31 8 -57 7 -83 -3 -83 -11 0 -21 30
-14 41 3 5 -4 9 -15 9 -10 0 -21 6 -24 13 -9 26 -22 -7 -22 -59 0 -38 5 -58
15 -64 10 -7 12 -12 4 -17 -15 -11 -28 -83 -14 -83 5 0 10 -5 10 -11 0 -5 -4
-8 -9 -4 -6 3 -9 -4 -8 -15 1 -11 10 -23 20 -26 12 -4 17 -13 15 -27 -2 -12
-7 -21 -13 -19 -5 2 -9 10 -7 18 2 8 -2 14 -8 14 -10 0 -10 -42 -1 -87 1 -2 6
-3 12 -3 6 0 8 9 4 20 -4 11 -2 20 4 20 6 0 11 -6 11 -14 0 -8 6 -17 13 -19 9
-4 9 -6 0 -6 -7 -1 -10 -8 -6 -17 5 -13 2 -15 -15 -10 -11 4 -23 2 -27 -4 -12
-20 5 -45 38 -56 l34 -10 1 113 c1 62 -3 115 -8 118 -5 3 -5 19 1 38 5 17 6
46 3 64 -7 40 4 82 17 62 7 -11 9 -10 10 6 1 11 2 27 1 35 0 8 -2 48 -3 88 -2
39 -4 72 -4 72 -1 0 -5 -3 -8 -7z m-35 -285 c-7 -7 -12 -8 -12 -2 0 14 12 26
19 19 2 -3 -1 -11 -7 -17z"/>
<path d="M6993 8254 c3 -25 9 -49 13 -52 4 -4 4 1 0 12 -5 14 -3 17 10 12 12
-5 15 -2 10 10 -3 9 -9 27 -12 40 -11 42 -26 26 -21 -22z"/>
<path d="M1760 8274 c0 -8 5 -12 10 -9 6 3 10 10 10 16 0 5 -4 9 -10 9 -5 0
-10 -7 -10 -16z"/>
<path d="M1976 8259 c-18 -26 -4 -55 31 -62 21 -4 23 -1 19 32 -3 20 -5 39 -5
44 -2 15 -30 6 -45 -14z m34 -18 c0 -6 -4 -13 -10 -16 -5 -3 -10 1 -10 9 0 9
5 16 10 16 6 0 10 -4 10 -9z"/>
<path d="M2155 8270 c-3 -5 -1 -10 4 -10 6 0 11 5 11 10 0 6 -2 10 -4 10 -3 0
-8 -4 -11 -10z"/>
<path d="M5472 8259 c-11 -17 -11 -24 -1 -36 12 -13 14 -13 20 4 19 46 5 70
-19 32z"/>
<path d="M1834 8244 c-18 -15 -18 -15 8 -10 22 5 26 3 22 -9 -4 -8 -1 -15 5
-15 15 0 14 25 -2 39 -10 8 -19 7 -33 -5z"/>
<path d="M7048 8225 c2 -19 6 -35 8 -35 2 0 4 16 4 35 0 19 -4 35 -8 35 -4 0
-6 -16 -4 -35z"/>
<path d="M5130 8220 c0 -16 4 -30 10 -30 5 0 7 7 4 15 -4 9 0 15 10 15 9 0 16
-6 16 -12 0 -9 3 -9 9 1 5 8 18 12 29 9 15 -4 19 -2 15 8 -3 9 -13 12 -24 9
-11 -4 -19 -2 -19 4 0 6 -11 11 -25 11 -21 0 -25 -5 -25 -30z"/>
<path d="M1695 8229 c4 -6 1 -10 -6 -8 -29 3 -39 -2 -39 -18 1 -22 103 -137
113 -127 10 11 9 164 -2 164 -5 0 -18 -10 -28 -23 -17 -22 -53 -43 -53 -31 0
3 7 12 15 20 17 18 20 34 4 34 -5 0 -7 -5 -4 -11z m21 -86 c-10 -10 -19 5 -10
18 6 11 8 11 12 0 2 -7 1 -15 -2 -18z"/>
<path d="M2070 8219 c0 -5 5 -7 10 -4 6 3 10 8 10 11 0 2 -4 4 -10 4 -5 0 -10
-5 -10 -11z"/>
<path d="M2119 8195 c0 -5 -3 -35 -5 -65 -2 -30 -6 -73 -8 -96 -3 -36 0 -46
23 -68 l27 -25 28 29 c15 17 23 30 16 30 -7 0 -8 6 -2 18 5 9 7 23 5 30 -3 7
1 26 7 43 9 22 16 27 25 19 17 -14 29 18 14 36 -10 12 -16 10 -35 -11 -13 -15
-24 -34 -24 -44 0 -27 -11 -33 -26 -13 -18 23 -17 64 1 88 20 26 19 42 -2 22
-15 -16 -17 -16 -29 0 -8 9 -14 13 -15 7z m37 -172 c-10 -10 -19 5 -10 18 6
11 8 11 12 0 2 -7 1 -15 -2 -18z"/>
<path d="M2230 8190 c0 -5 7 -10 16 -10 8 0 12 5 9 10 -3 6 -10 10 -16 10 -5
0 -9 -4 -9 -10z"/>
<path d="M6991 8168 c0 -16 2 -18 6 -8 3 8 11 18 17 22 7 5 4 8 -6 8 -12 0
-18 -7 -17 -22z"/>
<path d="M5121 8158 c-4 -13 -11 -42 -14 -64 -6 -39 -5 -42 18 -47 19 -3 34 4
58 26 l32 30 -35 -7 -35 -8 30 26 c17 14 36 25 43 26 24 0 1 20 -24 20 -13 0
-24 5 -24 10 0 20 -41 10 -49 -12z"/>
<path d="M5412 8173 c-6 -2 -10 -8 -8 -12 3 -4 1 -13 -5 -21 -6 -10 -9 -11 -9
-2 0 6 -4 12 -10 12 -22 0 -8 -29 19 -38 22 -8 32 -7 40 2 6 7 7 17 3 21 -4 5
1 5 11 2 11 -4 17 -1 17 9 0 12 -7 15 -27 10 -16 -3 -22 -3 -15 0 6 3 12 10
12 15 0 10 -8 10 -28 2z"/>
<path d="M1782 8150 c0 -14 2 -19 5 -12 2 6 2 18 0 25 -3 6 -5 1 -5 -13z"/>
<path d="M5280 8134 c-10 -26 -4 -54 13 -54 6 0 7 -3 4 -7 -4 -3 -16 2 -27 12
-19 18 -20 17 -21 -6 0 -20 -1 -21 -8 -6 -6 17 -8 17 -20 3 -7 -8 -10 -20 -6
-26 9 -14 42 -13 47 2 4 10 9 9 20 -3 21 -21 78 -14 78 10 0 14 -2 14 -10 1
-16 -26 -22 -3 -6 28 12 22 12 32 3 41 -9 9 -9 14 0 19 8 5 -2 8 -23 9 -28 1
-37 -4 -44 -23z"/>
<path d="M2294 8141 c3 -5 -3 -19 -14 -31 -29 -33 -14 -39 15 -7 29 31 30 33
9 41 -8 3 -13 2 -10 -3z"/>
<path d="M6846 8115 c-9 -26 -7 -32 5 -12 6 10 9 21 6 23 -2 3 -7 -2 -11 -11z"/>
<path d="M5940 8095 c0 -14 4 -25 9 -25 5 0 9 11 9 25 0 14 -4 25 -9 25 -5 0
-9 -11 -9 -25z"/>
<path d="M6018 8103 c5 -10 7 -24 5 -30 -5 -15 13 -18 22 -3 6 10 -15 50 -28
50 -4 0 -4 -8 1 -17z"/>
<path d="M5386 8085 c-2 -7 0 -18 5 -26 8 -12 12 -11 23 4 7 9 18 17 24 17 6
0 13 4 16 9 3 5 -10 9 -29 8 -19 -1 -36 -6 -39 -12z"/>
<path d="M5980 8080 c0 -5 5 -10 10 -10 6 0 10 5 10 10 0 6 -4 10 -10 10 -5 0
-10 -4 -10 -10z"/>
<path d="M6830 8032 c-8 -15 -15 -28 -16 -30 -1 -2 -11 1 -23 7 -16 9 -22 8
-30 -8 -6 -10 -7 -21 -4 -25 3 -3 -1 -6 -9 -6 -9 0 -21 -14 -27 -31 -10 -29
-9 -31 9 -26 26 7 26 -5 0 -21 -29 -18 -26 -47 5 -47 22 0 25 3 20 23 -5 20
-3 23 15 17 11 -4 20 -2 20 4 0 6 9 11 20 11 11 0 20 -4 20 -10 0 -5 -4 -10
-10 -10 -17 0 -11 -25 10 -43 20 -16 20 -16 22 33 4 99 3 105 -9 103 -13 -3
-12 30 2 60 13 30 -1 29 -15 -1z"/>
<path d="M5304 8011 c4 -5 0 -12 -6 -15 -7 -3 -4 -5 7 -3 11 1 26 -2 33 -7 17
-10 26 -1 19 19 -4 8 -18 15 -32 15 -15 0 -24 -4 -21 -9z"/>
<path d="M5412 8008 c-16 -16 -15 -28 1 -28 7 0 13 9 14 20 2 23 1 24 -15 8z"/>
<path d="M5960 7985 c0 -9 6 -12 15 -9 8 4 15 10 15 15 0 5 -7 9 -15 9 -8 0
-15 -7 -15 -15z"/>
<path d="M2190 7941 c0 -17 6 -31 16 -35 13 -5 15 -2 10 16 -3 13 -6 29 -6 36
0 6 -4 12 -10 12 -5 0 -10 -13 -10 -29z"/>
<path d="M5180 7930 c-12 -8 -10 -10 8 -10 13 0 20 4 17 10 -7 12 -6 12 -25 0z"/>
<path d="M2240 7906 c0 -22 3 -27 11 -19 8 8 8 16 0 30 -9 16 -10 14 -11 -11z"/>
<path d="M1955 7886 c-11 -6 -22 -12 -24 -14 -6 -3 61 -72 70 -72 7 0 22 35
35 80 6 23 5 24 -10 11 -13 -11 -22 -12 -34 -4 -12 7 -23 7 -37 -1z"/>
<path d="M2193 7877 c4 -9 2 -28 -3 -42 -6 -16 -6 -25 0 -25 6 0 10 5 10 11 0
7 6 17 14 23 12 9 11 14 -6 31 -18 17 -20 18 -15 2z"/>
<path d="M6671 7871 c-15 -27 -14 -31 9 -31 13 0 20 7 20 19 0 28 -17 35 -29
12z"/>
<path d="M2071 7810 l1 -65 9 49 c4 29 4 56 -1 65 -6 11 -9 -5 -9 -49z"/>
<path d="M6800 7803 c0 -21 8 -32 33 -52 15 -12 17 -11 17 8 0 11 -5 20 -12
19 -6 -2 -14 5 -16 14 -2 14 1 16 15 12 15 -5 15 -4 3 5 -22 16 -40 13 -40 -6z"/>
<path d="M6741 7799 c18 -11 39 -11 39 0 0 5 -12 9 -26 9 -18 0 -22 -3 -13 -9z"/>
<path d="M2047 7783 c-4 -3 -7 -16 -6 -27 0 -19 1 -19 10 3 10 24 8 36 -4 24z"/>
<path d="M6611 7774 c0 -11 3 -14 6 -6 3 7 2 16 -1 19 -3 4 -6 -2 -5 -13z"/>
<path d="M2240 7771 c0 -6 5 -13 10 -16 6 -3 10 1 10 9 0 9 -4 16 -10 16 -5 0
-10 -4 -10 -9z"/>
<path d="M1190 7741 c0 -17 18 -21 24 -6 3 9 0 15 -9 15 -8 0 -15 -4 -15 -9z"/>
<path d="M1186 7688 c-17 -20 -17 -22 -2 -33 9 -7 16 -16 16 -20 0 -4 12 -18
26 -31 14 -13 22 -29 19 -34 -4 -6 -1 -9 7 -8 7 2 16 10 20 18 6 13 7 12 7 -1
1 -9 8 -19 16 -23 8 -3 15 -15 15 -26 0 -13 4 -18 11 -15 6 4 8 13 5 21 -3 8
-1 14 4 14 6 0 10 -7 10 -15 0 -31 15 -13 18 21 1 21 -2 33 -8 29 -5 -3 -10 3
-10 14 0 14 -6 21 -20 21 -11 0 -20 5 -20 10 0 6 5 9 11 8 6 -2 13 2 16 9 2 7
-7 10 -27 9 -29 -2 -46 8 -50 29 -1 6 -7 9 -12 7 -6 -1 -16 2 -22 7 -9 7 -18
4 -30 -11z"/>
<path d="M1277 7693 c-4 -3 -7 -11 -7 -17 0 -6 5 -5 12 2 6 6 9 14 7 17 -3 3
-9 2 -12 -2z"/>
<path d="M6933 7656 c3 -7 1 -18 -5 -24 -6 -6 -7 -15 -4 -21 14 -22 26 -10 26
24 0 19 -5 35 -11 35 -6 0 -9 -6 -6 -14z"/>
<path d="M1165 7610 c-3 -5 3 -10 15 -10 12 0 18 5 15 10 -3 6 -10 10 -15 10
-5 0 -12 -4 -15 -10z"/>
<path d="M1390 7610 c-1 -3 -3 -17 -4 -32 -2 -25 0 -26 37 -23 40 4 65 15 33
15 -9 0 -15 4 -11 9 3 5 1 12 -5 16 -6 3 -13 -1 -16 -9 -9 -23 -22 -20 -27 7
-2 12 -5 20 -7 17z"/>
<path d="M1480 7548 c0 -9 6 -18 13 -21 10 -4 10 -7 0 -18 -19 -19 -16 -29 7
-29 33 0 36 29 6 58 -20 21 -26 23 -26 10z"/>
<path d="M1445 7539 c-4 -6 -5 -13 -2 -16 7 -7 27 6 27 18 0 12 -17 12 -25 -2z"/>
<path d="M1228 7534 c15 -7 16 -60 2 -69 -8 -5 -7 -11 1 -21 9 -11 9 -18 -1
-29 -15 -18 -13 -20 16 -29 15 -5 24 -2 28 10 6 16 8 15 21 -2 13 -16 16 -17
25 -4 15 23 12 30 -15 30 -16 0 -25 6 -25 15 0 8 -4 15 -9 15 -5 0 -12 8 -16
18 -5 14 -4 15 6 5 15 -15 49 -17 49 -4 0 4 -5 21 -10 37 -9 26 -16 30 -48 31
-20 1 -31 0 -24 -3z"/>
<path d="M2252 7512 c2 -9 14 -19 27 -20 30 -5 24 18 -8 29 -18 7 -22 6 -19
-9z"/>
<path d="M1192 7450 c0 -19 2 -27 5 -17 2 9 2 25 0 35 -3 9 -5 1 -5 -18z"/>
<path d="M2325 7430 c-3 -5 -1 -10 4 -10 6 0 11 5 11 10 0 6 -2 10 -4 10 -3 0
-8 -4 -11 -10z"/>
<path d="M1650 7390 c0 -5 7 -10 16 -10 8 0 12 5 9 10 -3 6 -10 10 -16 10 -5
0 -9 -4 -9 -10z"/>
<path d="M1269 7346 c7 -8 21 -12 31 -9 31 8 23 23 -11 23 -26 0 -29 -3 -20
-14z"/>
<path d="M1695 7320 c-3 -5 1 -10 9 -10 9 0 16 5 16 10 0 6 -4 10 -9 10 -6 0
-13 -4 -16 -10z"/>
<path d="M1252 7264 c2 -39 16 -54 29 -33 5 8 3 20 -5 29 -7 8 -11 21 -9 28 3
6 0 12 -6 12 -7 0 -11 -15 -9 -36z"/>
<path d="M1204 7262 c-6 -4 -14 -15 -17 -26 -5 -13 -3 -17 7 -13 8 3 16 1 18
-5 2 -6 10 -9 17 -7 11 4 10 9 -3 22 -10 9 -14 21 -11 27 7 12 4 12 -11 2z"/>
<path d="M1750 7238 c0 -30 1 -31 15 -12 19 25 19 44 0 44 -10 0 -15 -10 -15
-32z"/>
<path d="M1840 7216 c0 -16 4 -25 10 -21 6 3 10 1 10 -4 0 -6 9 -11 21 -11 15
0 19 -5 15 -15 -3 -8 -1 -15 3 -15 24 0 13 29 -21 59 l-38 33 0 -26z"/>
<path d="M1226 7191 c-4 -5 -2 -12 3 -15 5 -4 12 -2 15 3 4 5 2 12 -3 15 -5 4
-12 2 -15 -3z"/>
<path d="M1225 7138 c-28 -15 -28 -15 -20 -28 5 -8 11 -6 19 5 10 14 15 11 36
-27 l25 -43 3 35 c2 19 -1 36 -7 38 -6 2 -11 10 -11 18 0 17 -17 18 -45 2z"/>
<path d="M1300 7129 c0 -5 5 -7 10 -4 6 3 10 8 10 11 0 2 -4 4 -10 4 -5 0 -10
-5 -10 -11z"/>
<path d="M1780 7109 c0 -5 5 -7 10 -4 6 3 10 8 10 11 0 2 -4 4 -10 4 -5 0 -10
-5 -10 -11z"/>
<path d="M1330 7091 c-7 -15 -7 -21 0 -21 12 0 25 28 17 36 -3 3 -10 -4 -17
-15z"/>
<path d="M8708 6713 c7 -3 16 -2 19 1 4 3 -2 6 -13 5 -11 0 -14 -3 -6 -6z"/>
<path d="M8626 6684 c-8 -21 -8 -24 3 -24 12 0 22 28 12 35 -5 3 -12 -2 -15
-11z"/>
<path d="M8665 6660 c-8 -13 -1 -24 14 -19 6 3 7 10 2 18 -6 10 -10 10 -16 1z"/>
<path d="M8738 6663 c7 -3 16 -2 19 1 4 3 -2 6 -13 5 -11 0 -14 -3 -6 -6z"/>
<path d="M8588 6653 c7 -3 16 -2 19 1 4 3 -2 6 -13 5 -11 0 -14 -3 -6 -6z"/>
<path d="M8667 6609 c-9 -6 -15 -14 -12 -18 2 -5 -2 -14 -10 -21 -25 -21 -17
-30 25 -30 29 0 40 4 40 15 0 17 16 20 24 6 4 -5 0 -12 -6 -14 -9 -4 -8 -6 3
-6 8 -1 26 10 39 24 17 19 27 22 41 15 26 -15 31 -12 17 10 -12 19 -42 21 -80
5 -12 -5 -20 -2 -24 9 -7 18 -31 20 -57 5z"/>
<path d="M8845 6510 c3 -5 8 -10 11 -10 2 0 4 5 4 10 0 6 -5 10 -11 10 -5 0
-7 -4 -4 -10z"/>
<path d="M8149 6418 c-12 -49 -2 -78 27 -78 12 0 12 4 -2 25 -8 13 -13 29 -10
34 4 5 2 12 -4 16 -5 3 -10 5 -11 3z"/>
<path d="M8181 6274 c0 -11 3 -14 6 -6 3 7 2 16 -1 19 -3 4 -6 -2 -5 -13z"/>
<path d="M8861 6214 c0 -11 3 -14 6 -6 3 7 2 16 -1 19 -3 4 -6 -2 -5 -13z"/>
<path d="M1438 5276 c-6 -31 4 -40 32 -31 17 6 20 2 20 -29 0 -20 4 -36 10
-36 5 0 7 7 4 15 -4 8 -1 15 5 15 13 0 15 49 3 67 -4 7 -22 15 -39 19 -27 5
-31 3 -35 -20z m42 0 c0 -15 -18 -31 -26 -23 -7 7 7 37 17 37 5 0 9 -6 9 -14z"/>
<path d="M1140 5231 c0 -12 28 -22 35 -12 3 5 -2 12 -11 15 -21 8 -24 8 -24
-3z"/>
<path d="M1175 5200 c-7 -12 2 -30 16 -30 12 0 12 27 0 35 -5 3 -12 1 -16 -5z"/>
<path d="M1120 4850 c0 -5 5 -10 11 -10 5 0 7 5 4 10 -3 6 -8 10 -11 10 -2 0
-4 -4 -4 -10z"/>
<path d="M1885 4392 c-5 -14 -13 -21 -21 -18 -8 3 -14 -1 -14 -9 0 -9 10 -15
25 -15 14 0 25 5 25 11 0 5 5 7 10 4 6 -3 10 -1 10 4 0 6 -4 11 -9 11 -5 0
-12 8 -14 18 -4 14 -6 13 -12 -6z"/>
<path d="M1957 4335 c3 -8 9 -12 14 -9 12 7 11 11 -5 17 -10 4 -13 1 -9 -8z"/>
<path d="M1340 4321 c-29 -9 -29 -31 1 -72 23 -32 23 -39 6 -72 -11 -21 -15
-23 -31 -12 -9 7 -18 24 -18 37 -3 53 -49 56 -62 3 -7 -26 -30 -34 -42 -13 -4
6 1 17 10 24 14 10 15 16 6 33 -6 12 -17 21 -25 21 -9 0 -12 6 -8 18 5 14 3
15 -8 4 -7 -6 -13 -24 -14 -40 0 -19 -5 -27 -18 -26 -20 2 -21 -13 -6 -53 7
-19 7 -29 0 -31 -14 -5 -15 -132 -1 -132 6 0 16 11 22 25 6 14 15 25 19 25 13
0 20 -36 13 -64 -5 -22 -3 -26 15 -26 13 0 21 6 21 18 1 15 2 15 10 1 7 -12
22 -15 69 -12 51 3 64 0 81 -17 l20 -20 10 25 c12 30 30 33 37 4 4 -12 11 -18
20 -15 8 3 24 6 36 6 20 0 22 5 19 38 -2 20 -3 63 -2 96 1 58 -14 116 -31 116
-5 0 -9 -5 -9 -11 0 -8 -5 -8 -15 1 -17 14 -3 40 22 40 21 0 27 28 9 45 -9 9
-16 13 -16 8 0 -4 -7 0 -15 11 -15 20 -84 30 -125 17z m68 -107 c4 -33 -11
-24 -23 15 -5 17 -4 22 6 19 8 -3 15 -18 17 -34z m-228 -14 c0 -5 -7 -10 -15
-10 -8 0 -15 5 -15 10 0 6 7 10 15 10 8 0 15 -4 15 -10z m307 -56 c-9 -9 -28
6 -21 18 4 6 10 6 17 -1 6 -6 8 -13 4 -17z m-81 -10 c-5 -14 -9 -15 -19 -5 -9
9 -9 14 3 21 18 11 24 6 16 -16z m-196 -44 c0 -5 -5 -10 -11 -10 -5 0 -7 5 -4
10 3 6 8 10 11 10 2 0 4 -4 4 -10z m50 -16 c0 -9 -5 -14 -12 -12 -18 6 -21 28
-4 28 9 0 16 -7 16 -16z m215 -80 c-9 -9 -19 -13 -23 -10 -3 4 0 11 8 16 24
15 33 11 15 -6z m25 -14 c0 -5 -4 -10 -10 -10 -5 0 -10 5 -10 10 0 6 5 10 10
10 6 0 10 -4 10 -10z"/>
<path d="M1867 4314 c-8 -8 1 -24 14 -24 5 0 9 7 9 15 0 15 -12 20 -23 9z"/>
<path d="M1250 4295 c0 -9 6 -12 15 -9 8 4 15 1 15 -5 0 -6 5 -11 10 -11 6 0
10 9 10 20 0 15 -7 20 -25 20 -15 0 -25 -6 -25 -15z"/>
<path d="M1515 4300 c3 -5 8 -10 11 -10 2 0 4 5 4 10 0 6 -5 10 -11 10 -5 0
-7 -4 -4 -10z"/>
<path d="M1981 4252 c0 -20 3 -31 9 -27 6 3 10 -1 10 -9 0 -9 -5 -15 -12 -13
-6 1 -14 -7 -16 -18 -4 -17 -2 -18 12 -6 9 7 16 10 16 6 0 -4 6 -2 14 4 17 14
9 64 -10 57 -7 -3 -14 4 -17 17 -3 15 -5 11 -6 -11z"/>
<path d="M1850 4196 c0 -9 5 -16 10 -16 6 0 10 4 10 9 0 6 -4 13 -10 16 -5 3
-10 -1 -10 -9z"/>
<path d="M1445 3930 c-3 -5 -1 -10 4 -10 6 0 11 5 11 10 0 6 -2 10 -4 10 -3 0
-8 -4 -11 -10z"/>
<path d="M1190 3923 c-68 -10 -70 -11 -70 -52 0 -21 6 -44 14 -50 11 -9 13 -5
11 23 -3 34 -3 34 31 29 29 -5 34 -3 34 15 0 24 31 32 76 20 25 -6 32 -13 32
-33 0 -44 17 -55 65 -40 38 11 42 15 45 47 3 33 1 36 -30 41 -18 2 -36 0 -40
-6 -4 -7 -11 -7 -20 -1 -13 10 -101 15 -148 7z"/>
<path d="M1241 3884 c-1 -5 -9 -19 -19 -30 -25 -26 -37 -74 -19 -74 18 0 67
23 67 32 0 4 7 5 15 2 12 -5 15 2 15 31 0 34 -2 37 -24 31 -15 -4 -26 -1 -29
7 -3 6 -6 7 -6 1z"/>
<path d="M2154 3628 c-4 -13 -7 -29 -6 -35 3 -15 -7 -16 -26 -4 -11 7 -11 9 2
14 9 4 16 13 16 21 0 13 -4 14 -26 4 -19 -9 -24 -17 -20 -32 3 -12 6 -24 6
-28 0 -12 58 -2 75 12 18 15 19 29 1 53 -14 17 -15 17 -22 -5z"/>
<path d="M1430 2938 c0 -29 -4 -38 -17 -38 -25 0 -2 -20 30 -26 22 -3 27 -1
27 15 0 11 3 26 6 35 4 10 -1 18 -12 23 -11 3 -22 11 -26 17 -4 6 -8 -6 -8
-26z"/>
<path d="M7510 2900 c0 -5 7 -7 15 -4 8 4 15 8 15 10 0 2 -7 4 -15 4 -8 0 -15
-4 -15 -10z"/>
<path d="M1342 2872 c-7 -5 -6 -15 5 -32 8 -14 12 -17 9 -8 -3 10 2 21 11 26
13 8 13 10 1 15 -8 3 -20 2 -26 -1z"/>
<path d="M1405 2860 c3 -5 8 -10 11 -10 2 0 4 5 4 10 0 6 -5 10 -11 10 -5 0
-7 -4 -4 -10z"/>
<path d="M1501 2829 c-7 -23 -10 -44 -7 -47 3 -3 6 0 6 6 0 6 6 9 13 7 23 -8
50 22 43 49 -10 42 -41 33 -55 -15z"/>
<path d="M1405 2781 c-6 -11 9 -23 19 -14 9 9 7 23 -3 23 -6 0 -12 -4 -16 -9z"/>
<path d="M1262 2749 c-12 -11 -27 -17 -32 -14 -6 3 -10 0 -10 -8 0 -21 38 -29
49 -10 7 13 11 13 29 2 22 -14 25 -40 8 -67 -7 -11 -4 -12 13 -3 11 7 21 15
21 19 0 4 10 12 23 17 17 8 21 17 19 40 -4 35 -24 52 -34 27 -6 -15 -7 -15 -7
2 -1 16 -3 17 -18 5 -13 -11 -17 -11 -20 -1 -6 17 -16 15 -41 -9z"/>
<path d="M1451 2763 c-1 -6 -10 -15 -21 -18 -19 -6 -29 -25 -12 -25 17 1 44
30 39 42 -4 9 -6 9 -6 1z"/>
<path d="M1220 2691 c0 -5 4 -11 9 -13 13 -5 24 -48 12 -48 -6 0 -11 -7 -11
-15 0 -9 6 -12 15 -9 23 9 19 67 -5 82 -11 7 -20 8 -20 3z"/>
<path d="M8846 2475 c-3 -8 -1 -15 4 -15 13 0 22 18 11 24 -5 3 -11 -1 -15 -9z"/>
<path d="M8861 2374 c0 -11 3 -14 6 -6 3 7 2 16 -1 19 -3 4 -6 -2 -5 -13z"/>
<path d="M8856 2305 c-3 -8 -1 -15 4 -15 6 0 10 7 10 15 0 8 -2 15 -4 15 -2 0
-6 -7 -10 -15z"/>
<path d="M2828 2232 c-30 -34 -30 -43 -3 -68 14 -13 28 -24 30 -24 7 0 2 101
-5 105 -4 3 -14 -3 -22 -13z"/>
<path d="M3020 2223 c0 -5 5 -15 10 -23 8 -12 10 -11 10 8 0 12 -4 22 -10 22
-5 0 -10 -3 -10 -7z"/>
<path d="M3057 2208 c-7 -27 -1 -38 21 -38 14 0 15 -2 2 -10 -18 -11 -7 -25
15 -17 8 4 15 18 15 33 0 19 -4 25 -15 20 -10 -4 -15 1 -15 14 0 27 -16 25
-23 -2z"/>
<path d="M2885 2200 c-3 -5 -1 -10 4 -10 6 0 11 5 11 10 0 6 -2 10 -4 10 -3 0
-8 -4 -11 -10z"/>
<path d="M3000 2180 c-8 -6 -31 -10 -50 -9 -74 2 -80 0 -80 -25 0 -13 8 -27
17 -30 14 -6 15 -9 4 -15 -7 -5 -15 -22 -17 -37 -5 -35 4 -94 14 -94 12 0 32
52 32 83 0 16 4 26 10 22 6 -4 8 -11 5 -16 -4 -5 -1 -9 4 -9 19 0 12 -28 -19
-74 -27 -39 -30 -50 -24 -88 7 -43 7 -43 -14 -25 -19 17 -21 17 -30 2 -8 -16
-10 -16 -16 1 -4 10 -1 21 6 25 9 6 13 40 13 120 l0 112 -34 25 c-32 25 -34
26 -47 7 -18 -24 -18 -45 0 -45 13 0 13 -4 1 -34 -8 -18 -11 -37 -7 -40 3 -4
0 -11 -8 -16 -8 -6 -10 -10 -4 -10 7 0 15 -7 18 -16 3 -8 2 -13 -3 -10 -5 3
-11 -4 -14 -15 -3 -12 -10 -18 -17 -14 -6 4 -17 1 -25 -5 -12 -10 -15 -9 -15
10 0 13 8 24 20 27 17 5 20 14 20 61 0 62 -4 63 -23 6 -8 -21 -20 -39 -28 -39
-25 0 -34 -50 -15 -89 9 -20 18 -36 19 -36 1 0 17 4 35 9 27 8 34 7 39 -6 4
-9 1 -19 -5 -21 -7 -2 -12 -16 -13 -30 0 -15 -3 -21 -6 -14 -7 17 -23 15 -23
-3 0 -8 7 -15 16 -15 14 0 14 -2 0 -22 -18 -25 -22 -78 -6 -78 6 0 11 6 12 13
0 6 2 17 3 22 2 6 3 16 4 23 0 7 5 11 10 8 5 -4 11 0 14 6 2 7 8 10 12 5 5 -4
0 -13 -9 -20 -21 -15 -25 -65 -7 -77 9 -5 8 -10 -4 -20 -9 -8 -15 -29 -15 -56
0 -41 2 -45 30 -50 17 -4 30 -11 30 -16 0 -15 21 2 31 26 7 16 8 11 5 -21 -2
-24 -2 -43 1 -43 2 0 13 19 24 43 11 23 31 60 45 82 32 53 32 71 -1 48 -15
-11 -24 -28 -25 -45 0 -39 -13 -35 -39 13 -20 34 -21 45 -12 66 l11 25 -30
-22 c-25 -18 -30 -19 -30 -6 0 9 6 16 13 16 16 0 72 58 80 83 4 9 18 22 32 27
26 10 64 77 65 113 0 9 4 17 9 17 17 0 -30 -119 -60 -151 -16 -17 -29 -33 -29
-36 0 -3 -10 -13 -22 -24 -19 -16 -21 -20 -8 -28 17 -12 30 -5 30 16 0 16 40
57 48 48 3 -2 -3 -20 -12 -39 -20 -43 -20 -45 4 -43 12 1 20 8 20 19 0 10 4
18 9 18 15 0 24 40 12 54 -13 15 -5 26 20 26 18 0 29 19 29 51 0 11 4 18 9 14
14 -8 23 12 16 35 -4 11 -11 17 -17 14 -7 -5 -8 -2 -4 5 5 7 14 10 22 7 8 -3
14 1 14 9 0 8 5 15 10 15 6 0 10 28 10 64 0 50 -4 65 -16 70 -9 4 -17 5 -18 4
-33 -63 -39 -97 -24 -116 11 -15 11 -15 -3 -5 -9 7 -19 9 -24 5 -4 -4 -5 11
-1 33 12 86 12 95 -1 95 -17 0 -16 11 3 38 17 24 16 26 -6 12z m-90 -130 c0
-5 -4 -10 -10 -10 -5 0 -10 5 -10 10 0 6 5 10 10 10 6 0 10 -4 10 -10z m21
-113 c-10 -9 -11 -8 -5 6 3 10 9 15 12 12 3 -3 0 -11 -7 -18z m-144 -29 c-3
-8 -6 -5 -6 6 -1 11 2 17 5 13 3 -3 4 -12 1 -19z m148 -18 c3 -5 -1 -10 -10
-10 -9 0 -13 5 -10 10 3 6 8 10 10 10 2 0 7 -4 10 -10z m-157 -55 c-3 -3 -9 2
-12 12 -6 14 -5 15 5 6 7 -7 10 -15 7 -18z m5 -222 c-5 -15 -3 -16 8 -5 20 19
29 14 28 -15 0 -25 -1 -26 -9 -8 -5 11 -9 14 -9 7 -1 -20 -23 -9 -32 16 -6 16
-5 22 6 22 9 0 12 -6 8 -17z"/>
<path d="M8647 2152 c-3 -15 0 -30 6 -34 20 -13 30 -9 18 6 -6 7 -9 20 -5 29
3 8 1 18 -4 21 -5 3 -12 -7 -15 -22z"/>
<path d="M4935 1920 c-3 -5 1 -10 10 -10 9 0 13 5 10 10 -3 6 -8 10 -10 10 -2
0 -7 -4 -10 -10z"/>
<path d="M5020 1872 c0 -29 -2 -32 -24 -26 -15 3 -25 1 -28 -8 -8 -20 3 -128
13 -128 5 0 7 -11 3 -25 -5 -19 -2 -25 9 -25 9 0 19 5 22 10 13 20 20 9 22
-32 1 -46 -11 -62 -37 -48 -11 6 -20 3 -28 -10 -10 -16 -8 -20 8 -25 11 -4 20
-15 20 -26 0 -20 -16 -27 -22 -9 -1 5 -4 -13 -5 -41 -1 -44 2 -52 19 -57 15
-4 17 -7 6 -13 -10 -7 -10 -9 0 -9 6 0 12 -9 12 -20 0 -22 -16 -27 -23 -7 -2
6 -3 -17 -1 -52 2 -48 -2 -74 -17 -102 -20 -41 -25 -89 -9 -89 6 0 10 5 10 10
0 7 6 7 19 0 11 -5 26 -10 35 -10 13 0 13 3 0 28 -18 35 -18 52 1 52 8 0 15
-6 16 -12 0 -7 4 -3 9 10 5 12 14 22 19 22 6 0 8 -6 5 -14 -3 -8 3 -19 15 -26
19 -10 20 -9 11 16 -6 14 -8 30 -4 35 8 14 26 -1 20 -17 -8 -20 3 -44 20 -44
15 0 14 19 -6 157 -7 46 -16 80 -21 77 -6 -3 -7 11 -3 34 5 29 2 43 -12 56
-13 14 -14 20 -5 25 9 6 10 18 3 47 -6 21 -13 70 -17 107 -5 52 -10 67 -21 63
-19 -7 -28 11 -9 21 12 7 14 19 9 56 -4 26 -13 55 -20 64 -12 16 -13 15 -14
-15z m25 -162 c3 -5 -3 -10 -15 -10 -12 0 -18 5 -15 10 3 6 10 10 15 10 5 0
12 -4 15 -10z m5 -184 c0 -3 -4 -8 -10 -11 -5 -3 -10 -1 -10 4 0 6 5 11 10 11
6 0 10 -2 10 -4z m-27 -66 c-6 -22 -18 -26 -28 -10 -8 13 14 42 25 35 5 -3 6
-14 3 -25z m67 -60 c0 -15 -7 -20 -25 -20 -16 0 -25 6 -25 16 0 8 4 13 9 9 5
-3 12 -1 16 5 10 17 25 11 25 -10z m-40 -60 c0 -5 -4 -10 -10 -10 -5 0 -10 5
-10 10 0 6 5 10 10 10 6 0 10 -4 10 -10z m50 -28 c0 -13 -12 -22 -22 -16 -10
6 -1 24 13 24 5 0 9 -4 9 -8z m-70 -56 c0 -3 -4 -8 -10 -11 -5 -3 -10 -1 -10
4 0 6 5 11 10 11 6 0 10 -2 10 -4z m-43 -68 c-3 -8 -6 -5 -6 6 -1 11 2 17 5
13 3 -3 4 -12 1 -19z"/>
<path d="M2706 1871 c-3 -5 1 -11 9 -15 9 -3 15 0 15 9 0 16 -16 20 -24 6z"/>
<path d="M2595 1860 c3 -5 8 -10 11 -10 2 0 4 5 4 10 0 6 -5 10 -11 10 -5 0
-7 -4 -4 -10z"/>
<path d="M2630 1850 c0 -5 5 -10 11 -10 5 0 7 5 4 10 -3 6 -8 10 -11 10 -2 0
-4 -4 -4 -10z"/>
<path d="M2554 1833 c-4 -10 -6 -38 -5 -62 2 -30 0 -41 -8 -37 -6 4 -11 19
-11 33 0 37 -11 22 -20 -27 -6 -33 -4 -43 7 -47 8 -3 19 0 23 8 7 11 10 10 16
-5 11 -28 -8 -71 -34 -74 -26 -4 -29 -17 -4 -20 9 -1 26 -3 37 -4 17 -3 21 4
26 47 3 28 7 44 7 38 1 -7 11 -13 21 -13 16 0 18 -5 14 -40 -4 -27 -2 -40 6
-40 21 0 8 -54 -14 -60 -15 -4 -21 -15 -23 -44 -2 -22 -8 -48 -13 -58 -6 -12
-6 -18 1 -18 5 0 10 -13 10 -30 0 -47 -26 -38 -34 12 -6 35 -4 45 11 56 15 10
15 14 4 21 -8 5 -10 14 -6 22 5 10 5 11 -3 4 -5 -5 -12 -19 -15 -30 -4 -18 -5
-18 -6 3 -1 17 -7 22 -26 22 -23 0 -24 2 -15 20 10 18 8 19 -20 14 -19 -4 -30
-2 -30 5 0 10 13 15 33 12 13 -2 7 46 -8 59 -17 14 -20 50 -5 50 6 0 10 -4 10
-10 0 -5 7 -7 15 -4 13 5 12 9 -5 24 -14 12 -18 24 -13 36 7 18 6 18 -11 1
-11 -10 -20 -37 -23 -60 -2 -23 -9 -64 -16 -91 -14 -55 -37 -74 -37 -31 0 15
-4 24 -10 20 -5 -3 -10 -19 -10 -36 0 -37 -18 -38 -22 -1 -3 24 -15 9 -100
-116 -54 -79 -98 -147 -98 -153 0 -5 6 -9 13 -9 6 0 18 -13 25 -29 9 -20 23
-32 42 -36 17 -4 32 -11 35 -16 9 -14 112 -11 119 4 5 10 7 10 12 0 4 -9 32
-13 90 -13 82 0 84 1 84 24 0 25 24 41 43 29 7 -4 6 1 -2 10 -17 21 -25 21
-45 2 -11 -12 -16 -12 -23 -3 -14 24 -12 40 8 45 23 6 25 26 4 43 -22 18 -18
32 8 28 14 -2 21 -9 21 -20 -1 -10 2 -15 7 -12 5 3 9 0 9 -6 0 -7 12 -21 26
-32 14 -11 23 -26 20 -33 -2 -7 -1 -26 3 -41 7 -26 11 -21 59 73 29 56 52 108
52 117 0 9 3 16 8 16 4 0 22 27 40 60 28 49 30 60 17 60 -9 0 -19 -9 -22 -20
-8 -30 -33 -24 -39 9 -5 21 -10 28 -22 24 -12 -5 -14 -1 -9 26 6 27 4 32 -8
27 -9 -3 -15 0 -15 9 0 8 5 15 11 15 5 0 7 5 4 10 -4 6 -15 8 -25 5 -11 -3
-20 0 -24 10 -3 9 -2 13 4 10 6 -3 10 -1 10 4 0 6 6 11 14 11 7 0 19 7 26 15
10 11 4 21 -29 54 -23 22 -41 34 -41 27 0 -8 -7 -17 -16 -20 -11 -4 -15 -2
-11 7 7 20 -18 122 -30 122 -6 0 -15 3 -19 8 -12 11 -21 8 -30 -10z m126 -167
c0 -8 -4 -18 -10 -21 -5 -3 -10 3 -10 14 0 12 5 21 10 21 6 0 10 -6 10 -14z
m40 -181 c0 -28 -5 -31 -24 -13 -9 9 -10 16 -2 25 17 19 26 15 26 -12z m-345
-85 c-9 -29 -26 -12 -18 18 4 15 9 20 15 14 6 -6 7 -20 3 -32z m103 -61 c-10
-6 -18 -19 -18 -30 0 -11 -4 -17 -10 -14 -15 9 -12 33 8 54 10 11 21 15 27 9
6 -6 4 -13 -7 -19z m262 0 c0 -11 -4 -17 -10 -14 -5 3 -10 13 -10 21 0 8 5 14
10 14 6 0 10 -9 10 -21z m-103 -51 c-3 -8 -6 -5 -6 6 -1 11 2 17 5 13 3 -3 4
-12 1 -19z m-250 -30 c-3 -8 -6 -5 -6 6 -1 11 2 17 5 13 3 -3 4 -12 1 -19z
m30 0 c-3 -8 -6 -5 -6 6 -1 11 2 17 5 13 3 -3 4 -12 1 -19z m63 -19 c0 -11 -4
-17 -10 -14 -5 3 -10 15 -10 26 0 11 5 17 10 14 6 -3 10 -15 10 -26z m210 5
c0 -18 -24 -18 -39 0 -10 11 -8 15 6 18 23 6 33 0 33 -18z m-390 -29 c0 -14
-4 -25 -10 -25 -5 0 -10 11 -10 25 0 14 5 25 10 25 6 0 10 -11 10 -25z m74 -1
c4 -10 1 -14 -6 -12 -15 5 -23 28 -10 28 5 0 13 -7 16 -16z"/>
<path d="M4840 1806 c0 -19 6 -39 14 -43 8 -4 16 -15 19 -23 2 -8 3 -3 1 13
-4 29 5 34 24 15 9 -9 12 -5 12 20 0 21 -5 32 -15 33 -24 2 -29 4 -42 12 -10
6 -13 -1 -13 -27z"/>
<path d="M4941 1824 c0 -11 3 -14 6 -6 3 7 2 16 -1 19 -3 4 -6 -2 -5 -13z"/>
<path d="M2679 1826 c-5 -22 -4 -33 4 -43 5 -7 6 -17 2 -23 -3 -5 -1 -10 5
-10 16 0 24 28 11 44 -6 7 -8 15 -5 18 3 3 1 9 -5 13 -6 3 -12 4 -12 1z"/>
<path d="M4930 1750 c0 -5 5 -10 10 -10 6 0 10 5 10 10 0 6 -4 10 -10 10 -5 0
-10 -4 -10 -10z"/>
<path d="M4896 1731 c-4 -7 -5 -15 -2 -18 9 -9 19 4 14 18 -4 11 -6 11 -12 0z"/>
<path d="M4877 1653 c-13 -12 -7 -43 8 -43 18 0 20 -17 3 -22 -9 -3 -8 -10 5
-23 13 -13 18 -14 17 -4 -5 31 1 44 10 24 6 -13 9 -15 9 -5 0 8 -6 23 -14 33
-7 11 -11 25 -8 33 5 14 -18 20 -30 7z"/>
<path d="M4932 1640 c0 -14 2 -19 5 -12 2 6 2 18 0 25 -3 6 -5 1 -5 -13z"/>
<path d="M2375 1570 c-3 -5 1 -10 9 -10 9 0 16 5 16 10 0 6 -4 10 -9 10 -6 0
-13 -4 -16 -10z"/>
<path d="M4798 1482 c-20 -12 -28 -25 -28 -44 0 -16 4 -28 10 -28 6 0 7 -31 3
-80 -7 -90 2 -110 48 -110 21 0 28 5 27 18 -3 35 2 62 12 62 6 0 10 -11 10
-24 0 -27 31 -32 41 -7 9 24 -2 60 -17 54 -10 -4 -14 3 -14 26 0 24 4 31 20
31 18 0 20 6 18 53 -1 50 -2 50 -5 9 -5 -49 -23 -47 -23 3 0 19 -5 37 -11 40
-6 4 -9 1 -8 -6 1 -8 -1 -22 -6 -32 -4 -10 -5 -43 -2 -73 3 -29 2 -56 -3 -59
-12 -7 -20 21 -20 71 0 25 -5 44 -11 44 -6 0 -17 7 -26 16 -12 11 -13 18 -4
27 8 8 11 7 11 -6 0 -9 5 -17 10 -17 6 0 10 11 10 25 0 29 -6 30 -42 7z"/>
<path d="M4880 1216 c0 -21 21 -31 31 -15 5 8 3 17 -4 21 -18 12 -27 10 -27
-6z"/>
<path d="M4818 1168 c-41 -14 -36 -38 7 -38 34 0 43 12 27 36 -5 7 -16 8 -34
2z"/>
<path d="M4893 1173 c-7 -2 -13 -12 -13 -21 0 -14 2 -14 9 -3 5 7 14 10 20 7
6 -4 11 0 11 8 0 16 -6 18 -27 9z"/>
<path d="M2595 1140 c-3 -5 -1 -10 4 -10 6 0 11 5 11 10 0 6 -2 10 -4 10 -3 0
-8 -4 -11 -10z"/>
</g>
</svg>
